<?xml version="1.0" encoding="UTF-8"?>
<svg id="Camada_1" data-name="Camada 1" xmlns="http://www.w3.org/2000/svg" viewBox="0 0 133 45">
  <defs>
    <style>
      .cls-1 {
        fill: #231f20;
        stroke-width: 0px;
      }
    </style>
  </defs>
  <polygon class="cls-1" points="40.8033 31.6468 40.8033 12.5863 44.0186 12.5863 44.0186 28.4767 59.624 28.4767 59.624 31.6468 40.8033 31.6468"/>
  <path class="cls-1" d="M75.4822,28.4715c7.5069-.0263,10.0444-3.1412,10.0563-6.3073v-.0431c-.0385-3.0394-2.3598-6.3287-9.3868-6.3532h-9.4057v12.7036h8.7362M75.3202,31.6455h-11.7703V12.5919h12.5976c9.6023-.0214,12.6316,5.4703,12.6383,9.548v.0411c.001,2.1578-.8151,4.5397-2.9202,6.3695-2.1051,1.8298-5.4734,3.095-10.5388,3.095"/>
  <path class="cls-1" d="M105.9175,28.8834c7.0569-.0122,10.346-3.394,10.3562-6.7638-.0102-3.4373-3.3687-6.7526-10.3562-6.7646-7.0568.012-10.3482,3.3964-10.3562,6.7646.008,3.3698,3.2994,6.7516,10.3562,6.7638M105.9175,12.1609c4.5669-.001,7.9599,1.2291,10.218,3.0974,2.2558,1.866,3.3667,4.3692,3.3645,6.8613.0022,2.4914-1.1087,4.9949-3.3645,6.8607-2.2558,1.867-5.6489,3.097-10.2119,3.097h-.0061c-4.5668.0013-7.9599-1.2293-10.2179-3.097-2.2574-1.8657-3.3667-4.3692-3.3658-6.8607-.001-2.4921,1.1083-4.9953,3.3658-6.8613,2.2581-1.8683,5.6511-3.0984,10.2179-3.0974Z"/>
  <path class="cls-1" d="M21.6127,23.872l7.7065-.0013-3.8178-5.97-3.8887,5.9713M13.5534,31.6346l-.4853-.0032,12.4459-19.4227,12.4221,19.4259h-3.598l-3.0777-4.5983h-11.5669l-3.0216,4.6059-3.1185-.0077Z"/>
</svg>