<?xml version="1.0" encoding="UTF-8"?>
<svg id="Camada_1" data-name="Camada 1" xmlns="http://www.w3.org/2000/svg" viewBox="0 0 133 45">
  <defs>
    <style>
      .cls-1 {
        fill: #007049;
      }

      .cls-1, .cls-2 {
        stroke-width: 0px;
      }

      .cls-2 {
        fill: #000;
      }
    </style>
  </defs>
  <path class="cls-2" d="M90.8637,22.0169c.0097-1.5497-1.1403-2.4171-3.1676-2.4171h-5.1363l-.0195,9.0836h4.9316c2.3781-.0097,3.5672-.8479,3.5672-2.5633,0-1.1793-.7407-1.9785-1.9298-2.076,1.1696-.2534,1.7446-.9162,1.7543-2.0272h0ZM86.7605,23.1865h-1.1208v-1.6179h1.1306c.5945,0,.9844.2534.9844.7992,0,.5166-.3801.8089-1.0039.8089h0l.0097.0097ZM86.78,26.7147h-1.1403l.0097-1.7056h1.1501c.614,0,1.0039.2729,1.0039.8479,0,.5458-.3899.8577-1.0234.8577h0ZM78.174,25.2917h0c1.1013-.4093,1.7056-1.5302,1.7056-2.573.0097-2.1442-1.4425-3.1188-3.5087-3.1188h-4.8634l-.0292,9.0836h3.1188l.0097-2.69h.7895l1.6081,2.69h3.3722l-2.2027-3.3917ZM75.7277,23.6738h-1.1111l.0097-1.8908h1.1208c.5945,0,.9746.3021.9746.9356,0,.6043-.3801.9551-.9941.9551h0ZM132.5,25.818h0c0-2.0955-1.7641-2.6705-3.1383-2.9726-1.0429-.2242-1.5302-.3314-1.5302-.7505,0-.5555.7017-.6043,1.0721-.6043.9356,0,1.8031.3899,2.5535.8479l.8479-2.0662c-1.1013-.4776-2.4366-.8577-3.6744-.8577-2.1247,0-3.7816,1.0331-3.7816,3.1091,0,1.7056,1.2768,2.3684,2.6802,2.7192.9746.2437,1.5984.3119,1.5984.8089s-.4776.6335-.9454.6335c-1.0331,0-2.0077-.4581-2.612-.9746l-1.0234,2.0077c1.0916.7115,2.4366,1.1696,3.7816,1.1696,2.0467,0,4.1617-.731,4.1714-3.0506h0v-.0195ZM48.935,25.818h0c.0097-2.0955-1.7543-2.6705-3.1286-2.9726-1.0331-.2242-1.5399-.3314-1.5302-.7505,0-.5555.7017-.5945,1.0721-.5945.9356,0,1.8031.3899,2.5535.8479l.8479-2.0662c-1.1013-.4776-2.4268-.8479-3.6744-.8479-2.1247,0-3.7718,1.0331-3.7816,3.1091,0,1.7056,1.267,2.3586,2.6802,2.7095.9746.2437,1.5984.3216,1.5984.8089s-.4776.6335-.9454.6335c-.9649-.0097-1.8908-.3606-2.6218-.9746l-1.0234,2.0077c1.0916.7212,2.4366,1.1696,3.7816,1.1696,2.0467,0,4.1519-.731,4.1617-3.0603h0l.0097-.0195ZM117.7831,25.3794h0l-.0097,3.3137-3.1481-.0097.0292-9.0836h3.1481l-.0097,3.3235,1.9103-3.3235h3.5087l-2.9629,4.4736,3.3235,4.61h-3.7621l-2.0175-3.304h-.0097ZM111.5552,25.6231h0c-.575.4288-1.1501.8284-2.0955.8187-1.267,0-2.115-1.0526-2.115-2.3391,0-1.306.7505-2.3976,2.076-2.3976.8382,0,1.5594.4191,2.1442.8869l.9649-2.3099c-1.0721-.5458-2.1344-.8674-3.6159-.8674-2.729,0-4.7952,1.881-4.8049,4.6587-.0097,2.9336,1.998,4.7854,4.8732,4.7854,1.5789,0,2.69-.3704,3.5379-.8869l-.9649-2.3586v.0097ZM64.3245,21.6661h0l-.8089,3.1091h1.6179l-.8089-3.1091ZM66.3907,28.6737h0l-.536-1.6666h-3.0409l-.575,1.6666h-3.226l3.304-9.0836h4.0935l3.2163,9.0836h-3.2358ZM50.2021,21.8902h0l.0097-2.3001h8.6645l-.0097,2.3001h-2.7095l-.0195,6.7834h-3.2455l.0195-6.7834h-2.7095ZM102.1402,24.5412h0c-.0097,2.8069-1.5594,4.3176-4.4736,4.3176-2.8557,0-4.4638-1.5497-4.4541-4.2884l.0195-4.9804h3.2065l-.0097,4.8244c0,1.3352.3509,1.9298,1.2183,1.9298s1.2768-.5263,1.2865-2.0662l.0097-4.688h3.2065l-.0195,4.9511h.0097Z"/>
  <g>
    <path class="cls-1" d="M15.973,21.4323s-.0877.0294-.1071.1071h-.0194c.3507.273.5943.8868,1.3252.8868s.9745-.6137,1.3258-.8868c-.0194-.0777-.1071-.1071-.1071-.1071,0,0-.4584.1071-1.2087.1071-.7508,0-1.2087-.1071-1.2087-.1071Z"/>
    <polygon class="cls-1" points="16.7721 20.3213 16.7762 20.3219 16.7821 20.3213 16.7721 20.3213"/>
    <path class="cls-1" d="M15.4952,13.1576c.1465-.0294.8479-.1465,1.6765-.1465h.0194c.8285,0,1.5305.1171,1.6765.1465.0783.0094.1171-.0683.0488-.1171l-1.7347-1.3158-1.7353,1.3158c-.0677.0488-.0388.1365.0488.1171Z"/>
    <path class="cls-1" d="M14.9438,6.1111c-.3725.05-.7461.0953-1.1104.1695-.2036.0412-.399.103-.5996.1512-.3313.0806-.6655.1548-.9892.2542-.206.0641-.4031.1465-.6055.2177-.3083.1083-.6196.2107-.9191.3366-.1989.0836-.3878.1848-.5826.2754-.2919.1359-.5867.2666-.8691.4184-.1883.1018-.366.2189-.5496.3272-.276.163-.5555.3213-.8209.499-.1759.1177-.3401.2495-.5108.3737-.2601.1883-.5225.3731-.7703.5755-.1618.1324-.3113.2772-.4678.4149-.2418.2136-.4866.4243-.7155.6508-.1459.1442-.2801.2995-.4201.449-.223.2377-.4484.4731-.6579.7238-.1289.1548-.246.3189-.3695.4784-.2024.2607-.4066.5208-.5937.7938-.1112.163-.2107.3342-.3166.5014-.1801.2842-.3607.5673-.5243.8627-.093.1689-.1736.3448-.2613.5167-.1553.3072-.3113.6137-.4484.9315-.0747.1724-.1371.3513-.206.5267-.1283.3283-.256.6573-.3642.9956-.0559.1742-.0994.3537-.1495.5302-.0994.3507-.1965.702-.273,1.0621-.0371.1718-.0618.3478-.0936.5219-.0671.3731-.13.7473-.1718,1.1286-.0188.1689-.0265.3407-.04.5108-.0224.286-.0353.5749-.0435.8656,2.3102.3025,3.1723-1.773,5.6684-1.3358-.2442.4384-.4678.9062-.6532,1.3834-1.9895-.223-2.821,1.5605-4.9929,1.3358.0124.2248.0129.4525.0341.6744.0065.0636.0106.1271.0171.1901.0118.11.0359.216.05.3254,1.8742.2954,2.5503-1.3752,4.4821-1.2875-.1171.409-.2142.8285-.2825,1.2575-1.597-.01-2.2408,1.4876-4.0108,1.2669.0936.4596.2154.9086.3454,1.354,1.3881.1212,1.8895-1.2563,3.5095-1.2175-.01.3407-.0194.7208-.01,1.0916-1.3746-.01-1.8283,1.2463-3.1329,1.2063.0565.1524.1071.3072.1677.4578.0694.1718.14.3425.216.5114.0518.1171.1118.2295.1659.3448.9297-.0653,1.2681-1.2628,2.7004-1.1657.0488.3119.0977.6237.1659.9256-1.2528-.0871-1.5294,1.0621-2.4179,1.1575.2289.4172.4766.8215.7391,1.2163.5325-.2866.9915-1.1457,2.0001-1.1939-.1071-.3219-.1948-.6438-.273-.975.8968,0,1.9201-.3507,2.778-1.1304-.273-1.5788,2.1831-3.197,2.1831-4.3568,0-1.2569-.6337-1.9589-.6337-3.6548,0-1.2669.6143-2.6315,1.5399-3.5671.1854-.1754.3607-.3219.5755-.4578-.8479,1.0427-1.5011,2.2902-1.5011,3.7325,0,1.5988.7408,2.4367.7408,3.9178s-2.1637,2.7586-2.1637,4.2791c0,.5943.1848,1.1792.8185,2.329-.9745.965-2.232,1.4911-3.0505,1.4911-.263,0-.3996-.0777-.4972-.2825-.0877-.1854-.1659-.3607-.2336-.5461-.8715.0294-1.2716.8168-1.7541,1.1428.073.0977.1436.1965.2189.2925.1501.1948.3019.3872.4602.5731.0512.0594.1065.1147.1583.1742.3207-.3619.7567-.9656,1.394-1.1298.1071.2242.2342.4484.3607.6632-.542.1448-.9203.7026-1.2116,1.0639.0353.0365.0671.0771.103.1136.11.1142.2289.2195.3436.3295.1765.1695.3589.3319.5431.4937.2142-.3201.5396-.7373.9038-.958.1365.1854.283.3701.429.5455-.316.2107-.5826.5896-.7673.8985.3931.316.7979.6167,1.2192.8968.2189-1.6865,2.5185-2.8451,1.8971-4.807.2048.3513.4484.7897.4484,1.3063,0,1.4117-1.4935,2.5368-1.6312,3.9343.3154.1877.6349.3672.9633.5337.0712-1.55,1.6523-3.24,1.6523-4.5069,0-1.4234-1.8712-2.8557-1.8712-4.5422s2.1537-2.8457,2.1537-4.3274-.9162-2.329-.9162-4.2203c0-1.3834.6626-2.7869,1.6765-3.6836.1848-.1659.3607-.2925.5749-.3996-.965,1.1498-1.5205,2.1925-1.5205,3.7813,0,1.7836,1.0527,2.768,1.0527,4.5127s-2.1149,2.7092-2.1149,4.3368,1.9689,3.0022,1.9689,4.6687c0,1.5111-1.7112,3.0234-1.7606,4.8123.3772.1642.7661.3048,1.1569.4413-.1748-1.8077,1.7341-3.6683,1.7341-5.1365,0-1.6276-2.0372-3.0216-2.0372-4.7758s2.076-2.5732,2.076-4.3662-1.2769-2.7874-1.2769-4.7758c0-1.55.7603-2.9434,1.8812-3.8013.0194-.0094.0488-.0288.0683-.0488.1071-.0777.1948.01.1171.1077-.7991.9839-1.2187,1.9783-1.2187,3.4594,0,1.813,1.4623,3.2847,1.4623,5.0488,0,2.076-1.9689,2.6703-1.9689,4.3762s2.1054,3.0605,2.1054,4.8729c0,1.6629-1.9495,3.5077-1.6494,5.4295.4019.1047.8062.1995,1.2187.2736-.3436-2.3873,1.5805-4.1132,1.5805-5.6832,0-1.7159-2.1831-3.2364-2.1831-4.9029,0-1.5688,1.5694-2.0854,1.7741-3.6936.0288-.2242.2042-.3801.4478-.3413.3219.0488.7214.263,1.3646.263s1.0427-.2042,1.3646-.263c.2436-.0388.419.1171.4484.3413.2048,1.6082,1.7736,2.1249,1.7736,3.6936,0,1.6765-2.1831,3.197-2.1831,4.9029,0,1.57,1.9242,3.2959,1.5805,5.6832.4125-.0741.8173-.1689,1.2187-.2736.3095-1.9218-1.6488-3.7666-1.6488-5.4295,0-1.803,2.1048-3.1676,2.1048-4.8729s-1.9683-2.3002-1.9683-4.3762c0-1.7541,1.4617-3.2358,1.4617-5.0488,0-1.4717-.419-2.4756-1.2087-3.4594-.0777-.0877.01-.1854.1171-.1077.0194.01.0488.0294.0683.0488,1.121.8579,1.8812,2.2514,1.8812,3.8013,0,1.9783-1.2769,2.9822-1.2769,4.7758,0,1.803,2.076,2.6121,2.076,4.3662s-2.0372,3.1482-2.0372,4.7758c0,1.467,1.9154,3.3265,1.7341,5.133.3907-.1371.7791-.2777,1.1563-.4425-.0518-1.7865-1.76-3.2976-1.76-4.8076,0-1.6765,1.9689-3.0411,1.9689-4.6687s-2.1149-2.5927-2.1149-4.3368,1.0527-2.7292,1.0527-4.5127c0-1.5888-.5655-2.6315-1.5205-3.7813.2048.1165.3895.2436.5655.3996,1.0233.8968,1.6759,2.3002,1.6759,3.6836,0,1.8912-.9162,2.7392-.9162,4.2203s2.1543,2.6415,2.1543,4.3274-1.8712,3.1187-1.8712,4.5422c0,1.2757,1.5776,2.954,1.6606,4.5027.3283-.1671.6479-.3466.9633-.5349-.1406-1.3952-1.63-2.5191-1.63-3.929,0-.5267.2436-.965.4484-1.3063-.6208,1.9601,1.6729,3.1187,1.896,4.8017.4184-.2783.8203-.5778,1.211-.8915-.1854-.3178-.4519-.6879-.7679-.8985.1465-.1754.2925-.3601.429-.5455.3642.2207.6897.629.9044.958.1842-.1618.3672-.3248.5437-.4943.1136-.1094.2324-.2154.3425-.3289.0359-.0365.0677-.0771.1036-.1136-.2913-.3707-.6602-.9191-1.2122-1.0639.1271-.2242.2442-.439.3607-.6632.6379.1742,1.0733.7679,1.394,1.1298.0518-.0594.1077-.1147.1589-.1748.1583-.1877.3101-.3795.4596-.572.0753-.0965.1465-.1954.2189-.293-.4825-.3166-.8827-1.1039-1.7536-1.1428-.0783.1854-.1559.3707-.2342.5461-.0877.2048-.2336.2825-.4966.2825-.8191,0-2.086-.5261-3.0511-1.4911.6237-1.1404.8191-1.7247.8191-2.329,0-1.5205-2.1543-2.8069-2.1543-4.2791,0-1.4711.7408-2.319.7408-3.9178,0-1.4423-.6532-2.6803-1.5011-3.7325.2148.1265.4001.2724.5755.4578.9156.9356,1.5299,2.3096,1.5299,3.5671,0,1.6959-.6337,2.3979-.6337,3.6548,0,1.1598,2.4561,2.768,2.1837,4.3568.8574.7797,1.8807,1.1304,2.7774,1.1304-.0783.3313-.1659.6532-.273.975,1.0039.0483,1.4617.9156,1.9978,1.1981.263-.3948.5114-.8003.7403-1.2181-.9056-.0983-1.1692-1.2475-2.4261-1.1598.0683-.3019.1171-.6137.1659-.9256,1.437-.0971,1.7718,1.1098,2.7092,1.1675.0288-.0612.06-.1212.0883-.183.1283-.2783.246-.5625.3584-.8491.0365-.093.0688-.1883.1036-.2825-1.3034.0465-1.7641-1.2269-3.1429-1.2075.01-.3607.01-.702-.0094-1.0916,1.6235-.0394,2.1231,1.3464,3.5189,1.2175.073-.2495.1336-.5049.1954-.7591.0477-.1983.1065-.3937.1453-.5949-1.7741.2242-2.4173-1.2669-4.0155-1.2669-.0783-.429-.1659-.8485-.2825-1.2575,1.9354-.0877,2.6097,1.5906,4.4922,1.2869.0135-.1094.0377-.2154.0494-.3248.0065-.063.0112-.1265.0171-.1901.0212-.2218.0218-.4496.0341-.6744-2.1713.2342-3.0034-1.5588-4.9923-1.3358-.1854-.4772-.4096-.9356-.6532-1.3834,2.4956-.4372,3.3576,1.6382,5.6679,1.3358-.0076-.2907-.0206-.5796-.0435-.8656-.0135-.1701-.0212-.3419-.0394-.5108-.0424-.3813-.1053-.7556-.1724-1.1286-.0318-.1742-.0565-.3501-.093-.5219-.0771-.3607-.1742-.7126-.2736-1.0639-.05-.1759-.0936-.3542-.1489-.5278-.1083-.3389-.2366-.6685-.3654-.9974-.0688-.1754-.1306-.3537-.2054-.5255-.1371-.3183-.293-.6255-.449-.9333-.0871-.1712-.1677-.3466-.2601-.5143-.1636-.296-.3448-.5796-.5255-.8644-.1059-.1665-.2048-.3378-.316-.5002-.1871-.2736-.3919-.5337-.5949-.7956-.123-.1583-.2395-.3225-.3678-.476-.2101-.2513-.4354-.4872-.6596-.7255-.14-.1489-.273-.3042-.4184-.4478-.2301-.2277-.4749-.4384-.7173-.652-.1559-.1371-.3048-.2819-.466-.4131-.2483-.203-.5114-.3884-.772-.5773-.1701-.1236-.3342-.2554-.5096-.3725-.2648-.1771-.5431-.3348-.8179-.4972-.1848-.1089-.3637-.2271-.5525-.3289-.2819-.1518-.5761-.2819-.8668-.4178-.196-.0912-.3854-.1924-.5849-.276-.3001-.1259-.612-.2283-.9215-.3372-.2012-.0712-.3978-.1536-.6026-.2165-.3242-.1-.6591-.1748-.9909-.2548-.2001-.0488-.3954-.11-.5979-.1512-.3642-.0741-.7385-.1195-1.111-.1695-.1789-.0241-.3537-.0618-.5349-.0806-.5567-.0559-1.121-.0853-1.6929-.0853-.5714,0-1.1357.0294-1.6929.0853-.1807.0188-.3554.0565-.5349.0806ZM6.7628,19.8535c-2.3979-.8385-3.9767,1.5494-5.8285.9939,1.7936-1.9101,3.2552-4.0838,3.0605-6.5788-.0194-.1459.1171-.2342.2436-.1459.9162.6332,1.5594,1.6859,1.7541,2.8651l.01.01c1.2669-.8191,2.758-.9356,3.9861-.429-1.2669.8868-2.3585,1.9978-3.2258,3.2847ZM20.3393,17.056c.0294.0877-.0094.1465-.1071.0977-.273-.1271-.5943-.1854-.9356-.1854-.6337,0-1.1892.2342-1.5205.6332-.2048.6632-.1948,1.4134.0488,1.9983.3701-.0388.3413-.6826.6432-.6826.263,0,.3801.1759.8091.1759.3996,0,.5555-.1077.7308-.2342.3507.0388.429.3707.429.7603,0,1.7253-1.5888,4.1032-3.2747,4.1032s-3.2753-2.3779-3.2753-4.1032c0-.3895.0683-.7308.4001-.7308.2825,0,.3313.2048.7603.2048.4384,0,.6332-.1759.8868-.1759.253,0,.3407.2048.6043.2636.1654-.3996.1559-1.1016.0094-1.5794-.3313-.399-.8868-.6332-1.5205-.6332-.3507,0-.6626.0583-.945.1854-.0977.0488-.1365-.01-.1071-.0977h-.01c.3413-1.1304,1.6376-2.0078,3.187-2.0078s2.8463.8774,3.187,2.0078ZM20.3198,17.904c0,.1459-.0488.273-.2048.4096-.2925-.3219-.8868-.3119-1.5594-.0783-.0388-.0877-.0388-.2048-.0094-.2925.2724-.3019.7114-.419,1.0816-.419.4678,0,.692.1559.692.3801ZM13.9947,17.904c0-.2242.2336-.3801.692-.3801.6332,0,1.2669.3895,1.2375.7408-.7114-.263-1.4034-.273-1.7253.0488-.1553-.1365-.2042-.2636-.2042-.4096ZM28.3314,16.9778c.1948-1.1792.8379-2.2314,1.7541-2.8651.1271-.0877.2536,0,.2436.1465-.1948,2.5015,1.264,4.6634,3.0546,6.5717-1.8448.5378-3.4218-1.823-5.8126-.9968-.8674-1.2869-1.9589-2.3979-3.2264-3.2847,1.2287-.5072,2.7198-.3901,3.9867.4284ZM18.049,8.9956l2.2125.1559-1.657,1.4623.7408,1.9495c.955-.965,2.2514-1.5405,3.8107-1.7059-.5849.8774-1.0527,1.7836-1.4134,2.8169.8579-.702,1.9201-1.121,3.1482-1.2087-.7408.945-1.3934,1.9489-1.8712,3.0311-.0488.1171-.1659.1559-.2925.0977-1.6765-.8385-3.5671-1.3063-5.5649-1.3063s-3.889.4778-5.5655,1.3063c-.1265.0677-.2436.0288-.3019-.0977-.4872-1.0821-1.1404-2.086-1.8712-3.0311,1.2281.0877,2.2902.5066,3.1476,1.2087-.3601-1.0333-.8279-1.9395-1.4128-2.8169,1.5594.1654,2.8557.7308,3.8107,1.7059l.7408-1.9495-1.647-1.4623,2.2119-.1559.8874-2.056.8868,2.056Z"/>
    <path class="cls-1" d="M17.1623,20.399c-.2024,0-.2442-.0753-.386-.0771-.1377.0029-.3848.1077-.4425.2042,0,.0483.0194.0871.0583.1265.2925.0488.429.2142.7703.2142.3407,0,.4772-.1654.7697-.2142.0388-.0394.0488-.0783.0588-.1265-.0588-.0977-.3119-.2048-.439-.2048-.1365,0-.1848.0777-.3895.0777Z"/>
  </g>
</svg>