<?xml version="1.0" encoding="UTF-8"?>
<svg id="Camada_1" data-name="Camada 1" xmlns="http://www.w3.org/2000/svg" viewBox="0 0 133 45">
  <defs>
    <style>
      .cls-1 {
        fill: #000;
        fill-rule: evenodd;
        stroke-width: 0px;
      }
    </style>
  </defs>
  <path class="cls-1" d="M11.1271,31.2951c-4.6207,0-8.5647-4.191-8.5647-8.7623,0-4.5544,3.8615-8.8286,8.5316-8.8286,3.0699,0,5.2804,1.4852,7.0795,3.8121h2.2606c-.6766-1.2213-1.4026-2.3431-2.5082-3.218-1.8979-1.5346-4.3568-2.4419-6.7987-2.4419C5.2688,11.8564.5,16.6915.5,22.5166c0,5.8413,4.8352,10.6271,10.6602,10.6271,2.3763,0,4.7032-.8742,6.568-2.3431,1.1719-.9405,1.9967-2.1618,2.7891-3.4163h-2.2606c-1.7829,2.3269-4.0598,3.9109-7.1296,3.9109h0ZM34.5599,20.1565c-1.4189-1.8316-3.35-2.9866-5.7425-2.9866-4.2905,0-7.8218,3.4826-7.8218,7.7731s3.5482,7.8048,7.8218,7.8048c2.492,0,4.2242-1.04,5.7425-2.9542v2.607h1.8648v-14.8681h-1.8648v2.624ZM28.7186,31.0312c-3.2844,0-5.8751-2.8547-5.8751-6.072,0-3.2018,2.5746-6.0727,5.8751-6.0727,3.2836,0,5.8413,2.8716,5.8413,6.0727,0,3.2173-2.5746,6.072-5.8413,6.072ZM38.6853,32.4007h1.9974V12.2846h-1.9974v20.1161ZM48.2237,30.0406l-5.0497-12.5081h-1.9805l6.0565,14.8681h2.0129l6.0402-14.8681h-1.9473l-5.1322,12.5081h0ZM56.128,32.4007h1.9967v-14.8681h-1.9967v14.8681h0ZM56.128,15.6184h1.9967v-3.3337h-1.9967v3.3337ZM66.7226,17.1692c-1.8817,0-3.218.9906-4.4556,2.3107v-1.9473h-1.8486v14.8681h1.9636v-9.06c-.0162-2.3925,1.9636-4.4549,4.373-4.4549,3.0191,0,4.5374,2.624,4.5374,5.3305v8.1851h1.8478v-8.1851c.0007-3.8615-2.2592-7.0471-6.4177-7.0471h0ZM91.6731,12.2846l-9.0762,11.5351v-11.5351h-1.9636v20.1161h1.9636v-5.528l2.5746-3.2011,6.5511,8.7291h2.4927l-7.79-10.3138,7.79-9.8023h-2.5421ZM94.9405,32.4007h1.948V12.2846h-1.948v20.1161ZM113.0105,21.2783c-1.3533-2.5252-4.0598-4.1091-6.9151-4.1091-4.2566,0-7.8549,3.5482-7.8549,7.8055,0,4.2898,3.6308,7.7724,7.8895,7.7724,2.0285,0,4.0266-.8086,5.4942-2.2112.8918-.8417,1.4196-1.8979,1.8972-3.0035h-2.0948c-1.0569,2.063-2.9217,3.4981-5.3319,3.4981-1.4676,0-2.9034-.5941-3.992-1.6009-1.1232-1.0223-1.6178-2.2775-1.833-3.762h13.7146c.0007-1.5508-.2145-3.036-.9737-4.3893ZM100.3366,23.9517c.5955-2.7884,2.7891-5.0659,5.7933-5.0659,2.5245,0,5.231,1.5515,5.8251,5.0659h-11.6184ZM115.4369,32.4007h1.9628v-14.8681h-1.9628v14.8681h0ZM115.4369,15.6847h1.9628v-3.4001h-1.9628v3.4001ZM126.0315,17.1692c-1.9156,0-3.2519.9906-4.5064,2.3107v-1.9473h-1.881v14.8681h1.9805v-9.06c-.0162-2.4088,2.0137-4.4549,4.4386-4.4549,3.0042,0,4.5889,2.624,4.5889,5.3305v8.1851h1.8478v-8.1851c0-3.8615-2.2945-7.0471-6.4685-7.0471h0Z"/>
</svg>