<?xml version="1.0" encoding="UTF-8"?>
<svg id="Camada_1" data-name="Camada 1" xmlns="http://www.w3.org/2000/svg" viewBox="0 0 133 45">
  <defs>
    <style>
      .cls-1 {
        fill: #e3000d;
      }

      .cls-1, .cls-2 {
        stroke-width: 0px;
      }

      .cls-2 {
        fill: #004e9f;
      }
    </style>
  </defs>
  <path class="cls-2" d="M45.7465,40.2761c-.9074,0-1.5702.4576-1.5702,1.3332,0,.8202.5761,1.3919,1.4407,1.3919.5766,0,1.1532-.3204,1.5131-.7785v-1.168c0-.3896-.5047-.7785-1.3837-.7785M65.3605,40.1143c.0427,1.5373,1.0231,2.6494,2.7091,2.6494,1.0238,0,1.8023-.5546,2.0755-.903.1295.0977.2601.2436.2601.5832,0,.7648-.9228,1.8226-3.0702,1.8226-2.1611,0-3.9206-1.7233-3.9206-3.976,0-2.4804,1.6289-4.2531,4.0363-4.2531,2.1885,0,3.1986,1.6119,3.1986,2.9846,0,.4049-.0867.7797-.2601,1.0923h-5.0288ZM68.4164,39.1207c.3457,0,.3605-.2024.3605-.4735-.0148-.8087-.6502-1.5576-1.6147-1.5576-1.2537,0-1.7441,1.0506-1.7869,2.0311h3.0411ZM88.7496,39.9689c0,1.8785.2606,2.8359,1.472,2.8359,1.3233,0,1.6854-1.1817,1.6854-2.2554v-2.0493c0-.7038-.3336-.9771-1.0962-.8948-.3165-.7911.7341-1.2948,1.3272-1.4105.1855-.0286.3594-.0571.5195-.0571.8345,0,1.1549.5207,1.1549,1.2986,0,.2859-.028.8071-.028,2.9632,0,.9118-.0148,1.393-.0148,1.5438,0,.7099.3286,1.0715,1.0907.9887.3122.7928-.7319,1.1686-1.3277,1.2789-.1827.0274-.3489.0554-.4861.0554-.7923,0-.953-.5141-1.1127-1.2509-.112.1382-.2151.2513-.4302.4586-.519.4862-1.196.7785-1.9608.7785-.8362,0-1.5422-.321-1.9894-.8477-.6913-.8202-.6913-1.8774-.6913-3.4213v-1.483c0-.7038-.3319-.9771-1.0951-.8948-.3171-.7911.7357-1.2948,1.326-1.4105.1871-.0286.3594-.0571.5185-.0571.835,0,1.1527.5207,1.1527,1.2986l-.0148,2.532h0ZM85.1044,40.1302c0-2.4371-1.686-4.0934-4.0209-4.0934-2.1611,0-4.0786,1.6563-4.0786,4.0934,0,2.4679,1.8012,4.122,4.0067,4.122,2.3339,0,4.0929-1.6815,4.0929-4.122M48.932,42.2776c0,.6216.4027.8197,1.1094.9173-.0434.722-.5481,1.0018-1.1384,1.0572-.6633.0554-1.3118-.2518-1.5708-.9442-.3034.2754-1.1966.9716-2.364.9716-1.5993,0-2.7959-1.0715-2.7959-2.5308,0-1.5428,1.3404-2.4569,3.2283-2.4569.6496,0,1.3255.135,1.7293.344v-1.0331c0-.9255-.4038-1.5131-1.455-1.5131-.2167,0-.6919.0571-1.0671.1997.0434.1464.073.3028.073.4466,0,.565-.3605,1.0232-.9656,1.0232-.5338,0-.9376-.4302-.9376-.9793,0-1.009,1.269-1.7436,3.0274-1.7436,1.3979,0,2.2489.3314,2.6955.9069.4027.5064.4318,1.2849.4318,2.4086v2.9259ZM83.0437,40.2487c0,1.8725-.8075,2.8903-1.9454,2.8903-1.0089,0-1.9888-1.0172-1.9888-3.2381,0-1.7304.7204-2.8106,1.9022-2.8106,1.1669-.0004,2.0321,1.1971,2.0321,3.1585M54.6384,37.4062c.0434.4916.4614.8362.9508.8362.62,0,.9947-.5498.9947-1.0819,0-.75-.6051-1.1385-1.2109-1.1385-.6913,0-1.4265.5196-1.844,1.2965l-.0291.0143c-.1295-.6902-.4614-1.2109-1.1533-1.2109-.1586,0-.3314.0296-.5184.0867-.5767.1729-1.427.6183-1.1094,1.4106.807-.1553,1.0951.1163,1.0951.8202v3.3517c0,.6655-.0861.9442-.3171,1.1396-.2167.1656-.4466.2342-.5909.2627-.3314.7221.3171.947,1.917.947s2.1474-.2244,1.816-.947c-.1443-.029-.5475-.0977-.7637-.2628-.231-.1953-.3314-.474-.3314-1.1395v-2.0217c-.0004-1.8023.6622-2.2763,1.0945-2.363M74.469,36.2376h2.0607c.2452.5897-.0862,1.0654-.5476,1.1094-.1442.0153-.3028.0153-.4466.0153-.3752,0-.7494-.0296-1.0089-.0296v4.4588c0,.6655.1152.9442.3457,1.1395.2167.1657.7214.2343.8658.2628.3314.7221-.4477.947-2.047.947s-2.2621-.2244-1.9312-.947c.1438-.029.3753-.0977.5909-.2628.2304-.1953.3165-.474.3165-1.1396v-4.4889l-1.2103-.0428c-.2453-.5887.0861-1.0079.5761-1.0079h.6062v-.5766c0-1.1675.2156-1.8165.5042-2.2489.446-.6918,1.2103-1.1669,2.4058-1.1669,1.5137,0,2.7383.706,2.7383,1.7721,0,.4614-.3171,1.0232-.9799,1.0232-.4893,0-.9507-.418-.9507-.9359,0-.2173.0867-.4477.2013-.5909-.1723-.2019-.5327-.3034-.8789-.3034-.9947,0-1.2103.7351-1.2103,1.6575v1.3557ZM61.1958,37.4062c.0434.4916.4614.8362.9513.8362.62,0,.9941-.5498.9941-1.0819,0-.75-.6051-1.1385-1.2103-1.1385-.6918,0-1.427.5196-1.8439,1.2965l-.0296.0143c-.1289-.6902-.4609-1.2109-1.1528-1.2109-.158,0-.3313.0296-.5184.0867-.5771.1729-1.4276.6183-1.1099,1.4106.8071-.1553,1.0945.1163,1.0945.8202v3.3517c0,.6655-.0855.9442-.3165,1.1395-.2162.1657-.446.2343-.5898.2628-.3319.7221.3171.947,1.9159.947s2.1479-.2244,1.816-.947c-.1438-.029-.5471-.0977-.7637-.2628-.2304-.1953-.3314-.474-.3314-1.1395v-2.0217c-.0004-1.8023.6622-2.2763,1.0945-2.363M99.5523,37.4062c.0483.4916.4697.8362.9618.8362.6111,0,.9859-.5498.9859-1.0819,0-.7501-.5964-1.1385-1.2103-1.1385-.6891,0-1.4161.5196-1.8325,1.2964l-.0422.0143c-.1262-.6902-.4609-1.2109-1.1401-1.2109-.169,0-.3331.0297-.5306.0867-.5684.1728-1.416.6183-1.1071,1.4105.8098-.1552,1.0934.1163,1.0934.8203v3.3516c0,.6656-.0828.9443-.3209,1.1396-.2069.1657-.4444.2342-.5821.2628-.3347.722.3199.947,1.9186.947s2.1403-.2244,1.8056-.947c-.1372-.029-.5404-.0977-.7648-.2628-.2195-.1953-.3165-.474-.3165-1.1396v-2.0217c.0006-1.8023.6518-2.2763,1.0819-2.363M31.5,38.5364c0,3.6369,2.5067,5.7909,5.2308,5.7909,2.4502,0,4.1647-1.7227,4.1647-3.1569,0-.7637-.4751-1.3189-1.0951-1.3189-.6342,0-1.1669.4302-1.1669,1.1691,0,.4718.2589.7357.4466.9436-.332.6409-1.0381,1.1681-2.1337,1.1681-1.8154,0-3.1267-1.8911-3.1267-4.6108,0-2.7229,1.2531-4.6256,3.0696-4.6256,1.0956,0,1.8012.5333,2.1331,1.1681-.1876.2156-.4466.4751-.4466.9508,0,.7351.5333,1.1669,1.1675,1.1669.62,0,1.0945-.5601,1.0945-1.3255,0-1.4275-1.7145-3.1563-4.1647-3.1563-2.7245-.0004-5.1731,2.3636-5.1731,5.8365"/>
  <path class="cls-1" d="M57.1148,1.7686l-12.5939,12.1837c-.629.534-1.0307,1.1612-1.0307,2.0586,0,.8933.4022,1.5228,1.0307,2.061l12.5939,12.1795c.0809.0827.1591.1156.2255.1156.1193,0,.2016-.1084.1979-.2359-.0036-.075-.0361-.1613-.1107-.2359-2.9561-3.6727-5.107-7.885-5.107-13.8401,0-5.9587,2.1509-10.2537,5.107-13.9291.0745-.0736.1071-.1585.1107-.2354.004-.1302-.0786-.2355-.1979-.2355-.0664-.0013-.1446.0312-.2254.1134"/>
  <path class="cls-2" d="M66.7969.737c-4.9312,0-6.858,6.988-6.858,15.3172s1.9267,15.2269,6.8579,15.2269c2.9593,0,5.4816-1.7329,5.4897-3.1572.0013-.3118-.1188-.6105-.3805-.8712-1.4026-1.3552-1.9511-2.7094-1.9552-3.9046-.0091-2.2815,1.9701-3.9809,3.7947-3.9809,2.5083,0,3.9877,1.9714,3.9877,4.5245,0,2.4193-1.0307,4.4341-2.1522,6.0477-.0443.066-.0642.1396-.0642.2042.0009.1265.0755.2305.1871.2305.0677,0,.1473-.0361.2341-.1234l12.597-12.1795c.629-.5377,1.0307-1.1676,1.0307-2.061,0-.897-.4022-1.5246-1.0307-2.0587l-12.597-12.1835c-.0863-.0863-.1659-.1229-.2341-.1229-.1125,0-.1862.1048-.1871.2318,0,.0651.0199.1378.0642.2047,1.121,1.6114,2.1522,3.6285,2.1522,6.0459,0,2.5512-1.4794,4.5245-3.9876,4.5245-1.8246,0-3.8038-1.6981-3.7947-3.98.004-1.1951.5526-2.5508,1.9552-3.9046.2616-.262.3818-.5581.3804-.8703-.0081-1.4265-2.5304-3.1603-5.4897-3.1603"/>
</svg>