<svg xmlns="http://www.w3.org/2000/svg" id="Camada_1" data-name="Camada 1" viewBox="0 0 1920 809"><defs><style>      .cls-1 {        fill: #4c233f;      }      .cls-1, .cls-2, .cls-3, .cls-4, .cls-5, .cls-6, .cls-7, .cls-8, .cls-9, .cls-10, .cls-11, .cls-12 {        stroke-width: 0px;      }      .cls-3 {        fill: #54d9c9;      }      .cls-4 {        fill: #5030e2;      }      .cls-5 {        fill: #ffc91e;      }      .cls-6 {        fill: #ff2069;      }      .cls-7 {        fill: #f9f8f3;      }      .cls-8 {        fill: #000405;      }      .cls-9 {        fill: #fb2752;      }      .cls-10 {        fill: #a1acb0;      }      .cls-11 {        fill: #5c324d;      }      .cls-12 {        fill: #00be00;      }    </style></defs><polyline class="cls-3" points="1631 894.75 259.7322 895.6997 259.7322 -19.25"></polyline><circle class="cls-6" cx="1838" cy="74.75" r="282"></circle><rect class="cls-5" x="113.6499" y="-33.485" width="198.0858" height="919.2711"></rect><rect class="cls-4" x="-10.5" y="-36.25" width="128.9397" height="919.2711"></rect><g><path class="cls-2" d="m294.7933,653.6905c3.5978-3.0991,9.4979-6.8754,18.7376-11.4616,41.0454-20.3731,25.6784-62.4215,17.1948-80.5084-8.4836-18.0869,3.257-40.9199,18.1379-55.0095,14.8809-14.0896,17.822-50.1607,10.5916-64.953-5.2418-10.724-5.5869-26.7623-4.9329-38.4602.0834-1.4913-2.0527-1.8343-2.4452-.3932l-66.8568,245.4675-1.0677,2.4201,10.6407,2.8982Z"></path><path class="cls-12" d="m290.8626,650.6256c2.6569-3.9357,7.3573-9.1297,15.067-15.9828,34.2489-30.4435,8.372-66.9756-4.5665-82.1973-12.9385-15.2217-7.6109-40.3376,3.0443-57.8426,10.6552-17.505,4.0137-53.0811-6.8498-65.4534-7.8758-8.9696-12.4234-24.3535-14.8666-35.8121-.3115-1.4608-2.4626-1.2304-2.4626.2632v254.4094l-.3942,2.6157h11.0283Z"></path><path class="cls-9" d="m408.1272,633.7162c0,57.1519-46.3308,103.4827-103.4827,103.4827s-103.4827-46.3308-103.4827-103.4827"></path><rect class="cls-11" x="214.6594" y="734.9493" width="166.4722" height="76.4872"></rect></g><rect class="cls-11" x="1501.5875" y="623.3217" width="206.9655" height="188.9685"></rect><path class="cls-8" d="m1504.7477,663.7537c66.8033-3.0994,134.5687-3.1243,201.3716-.0006-66.8028,3.1249-134.5682,3.1002-201.3716.0006h0Z"></path><path class="cls-8" d="m1542.4346,664.8787c3.1123,48.1233,3.137,96.4374.0005,144.5601-3.1376-48.1226-3.1129-96.4367-.0005-144.5601h0Z"></path><rect class="cls-7" x="1599.2461" y="622.7314" width="31.4995" height="63.7038"></rect><g><rect class="cls-1" x="1567.4316" y="480.3223" width="156.5873" height="142.971"></rect><path class="cls-8" d="m1598.3359,511.7638c1.3723,17.9324,1.6286,36.6685,1.7138,54.6861-.0795,18.0274-.3328,36.7405-1.7138,54.6861-1.3805-17.9323-1.6349-36.6683-1.7138-54.6861.0859-18.0272.3411-36.7404,1.7138-54.6861h0Z"></path><polygon class="cls-11" points="1739.6776 515.3329 1551.7729 515.3329 1567.4316 480.3223 1724.0189 480.3223 1739.6776 515.3329"></polygon></g><g><rect class="cls-1" x="1708.2148" y="683.4664" width="140.682" height="128.4487"></rect><path class="cls-8" d="m1710.3629,710.9496c45.4086-2.107,91.4712-2.1238,136.8796-.0004-45.4083,2.124-91.4709,2.1072-136.8796.0004h0Z"></path><path class="cls-8" d="m1735.98,711.7142c1.2329,16.1109,1.4632,32.9439,1.5397,49.1313-.0715,16.1962-.299,33.0087-1.5397,49.1314-1.2402-16.1107-1.4688-32.9437-1.5397-49.1313.0771-16.1961.3065-33.0085,1.5397-49.1314h0Z"></path></g><g><path class="cls-10" d="m1611.7625,629.9535c0,.8803.3152,1.7685.8195,2.4977-.5042.364-.8195,1.0245-.8195,1.9051,0,1.6393,1.0968,3.3571,2.4584,3.8502l4.5385,1.6419c.4156.1507.6298-.1511.6298-.5304,0-.3797-.2142-.8371-.6298-.9876l-4.5385-1.6426c-.6556-.2368-1.1978-1.0863-1.1978-1.8757,0-.7887.5422-1.2459,1.1978-1.0091l4.5385,1.6435c.4411.1593.6553-.1426.6553-.5222,0-.3793-.2142-.8365-.6553-.9964l-4.5385-1.6429c-.6556-.2374-1.1978-1.0857-1.1978-1.8757,0-.7891.5422-1.2459,1.1978-1.0085l4.5385,1.6429c.4156.1501.6298-.1517.6298-.5311,0-.3797-.2142-.8368-.6298-.9876l-4.5385-1.6429c-1.3617-.4921-2.4584.4317-2.4584,2.0713Zm0,17.7731c0,1.6092.9581,3.3979,2.4205,3.9273l2.9123,1.0543c1.412.5108,2.4205-.2626,2.4205-2.1455,0-.9258-.3025-1.9463-.8826-2.7632-.1387-.2021-.3152-.3875-.5167-.4604-.3662-.1324-.6305.121-.6305.5311,0,.7132.7688,1.1135.7688,2.2367,0,1.0624-.4542,1.3384-1.1596,1.083l-.4035-.1458-.3152-1.8603c-.2521-1.5481-.933-3.1916-2.3322-3.6978-1.5131-.5481-2.2819.6916-2.2819,2.2406Zm2.2946-.7181c.4663.1687.9329.8234,1.1089,1.8894l.3031,1.7034-1.2861-.4653c-.6553-.2374-1.1599-1.0422-1.1599-1.9683,0-.9869.4284-1.3783,1.034-1.1592Zm-2.2946-5.7252c0,.9254.3025,1.9463.8826,2.7632.1387.2021.3152.3875.5167.4604.3659.1324.6305-.121.6305-.5311,0-.7139-.7691-1.1135-.7691-2.2367,0-1.0628.4539-1.3388,1.1599-1.083l.4035.1458.3152,1.86c.2521,1.5484.9326,3.1916,2.3319,3.6978,1.5131.5484,2.2822-.6919,2.2822-2.2403,0-1.6095-.9585-3.3982-2.4205-3.9273l-2.9123-1.0546c-1.412-.5105-2.4205.2629-2.4205,2.1458Zm5.3328.4267c.655.2371,1.1596,1.0418,1.1596,1.9683,0,.9863-.4284,1.3783-1.0337,1.1592-.466-.1691-.933-.8237-1.1095-1.8894l-.3025-1.7034,1.2861.4653Zm-5.3328,13.1074c0,.6834.2142,1.3836.5419,1.9427l-1.6867-.5768c-.3888-.1874-1.6926.8715-.9352,1.1458l7.1232,2.5778c1.5003.5432,2.7102-.4764,2.7102-2.2832s-1.2099-3.702-2.7102-4.2449l-2.3329-.8443c-1.4997-.5432-2.7102.4761-2.7102,2.2828Zm2.7102-.7645l2.3329.844c.8064.292,1.4493,1.2989,1.4493,2.2704s-.6429,1.5137-1.4493,1.221l-2.3329-.8433c-.8064-.292-1.4496-1.2995-1.4496-2.2711s.6432-1.5134,1.4496-1.221Z"></path><path class="cls-10" d="m1616.1545,670.8643l-.8398.7992c.0464.0441,2.3181,2.1834,2.999,2.843v-1.2152c0-.69-.5781-1.2341-.9248-1.5657l-.9091-.8662c-.1311-.0929-.2511-.0504-.3254.0049Zm-3.6651.087l-.9003.859c-.3463.3319-.9627.8375-.9627,1.5271v1.1331l2.9506-2.807-.7462-.7093c-.0634-.0608-.2116-.1089-.3414-.0029Zm3.6651-.087l-.8398.7992c.0464.0441,2.3181,2.1834,2.999,2.843v-1.2152c0-.69-.5781-1.2341-.9248-1.5657l-.9091-.8662c-.1311-.0929-.2511-.0504-.3254.0049Zm0,0l-.8398.7992c.0464.0441,2.3181,2.1834,2.999,2.843v-1.2152c0-.69-.5781-1.2341-.9248-1.5657l-.9091-.8662c-.1311-.0929-.2511-.0504-.3254.0049Zm-3.6651.087l-.9003.859c-.3463.3319-.9627.8375-.9627,1.5271v1.1331l2.9506-2.807-.7462-.7093c-.0634-.0608-.2116-.1089-.3414-.0029Zm0,0l-.9003.859c-.3463.3319-.9627.8375-.9627,1.5271v1.1331l2.9506-2.807-.7462-.7093c-.0634-.0608-.2116-.1089-.3414-.0029Zm3.6651-.087l-.8398.7992c.0464.0441,2.3181,2.1834,2.999,2.843v-1.2152c0-.69-.5781-1.2341-.9248-1.5657l-.9091-.8662c-.1311-.0929-.2511-.0504-.3254.0049Zm0,0l-.8398.7992c.0464.0441,2.3181,2.1834,2.999,2.843v-1.2152c0-.69-.5781-1.2341-.9248-1.5657l-.9091-.8662c-.1311-.0929-.2511-.0504-.3254.0049Zm-3.6651.087l-.9003.859c-.3463.3319-.9627.8375-.9627,1.5271v1.1331l2.9506-2.807-.7462-.7093c-.0634-.0608-.2116-.1089-.3414-.0029Zm0,0l-.9003.859c-.3463.3319-.9627.8375-.9627,1.5271v1.1331l2.9506-2.807-.7462-.7093c-.0634-.0608-.2116-.1089-.3414-.0029Zm3.6651-.087l-.8398.7992c.0464.0441,2.3181,2.1834,2.999,2.843v-1.2152c0-.69-.5781-1.2341-.9248-1.5657l-.9091-.8662c-.1311-.0929-.2511-.0504-.3254.0049Zm0,0l-.8398.7992c.0464.0441,2.3181,2.1834,2.999,2.843v-1.2152c0-.69-.5781-1.2341-.9248-1.5657l-.9091-.8662c-.1311-.0929-.2511-.0504-.3254.0049Zm-3.3237.0899c-.0634-.0608-.2116-.1089-.3414-.0029l-.9003.859c-.3463.3319-.9627.8375-.9627,1.5271v1.1331l2.9506-2.807-.7462-.7093Zm-7.7219,2.3149c0,5.236,4.2047,9.4809,9.3913,9.4809s9.391-4.2449,9.391-9.4809-4.2047-9.4809-9.391-9.4809-9.3913,4.2449-9.3913,9.4809Zm11.8743-3.3158l1.3306,1.2662c.4359.4117,1.1491,1.0556,1.1491,1.9846l.0098,2.5778c0,.0118-.0003.0232-.0007.0347,0,.5723-.5974.9241-1.2076.3084l-3.8181-3.635-3.4136,3.2488-.0007.0007-.0131.0128c-.0903.0867-.3927.3751-.3927.3751-.5644.5347-1.1014.2897-1.1014-.2989v-2.6076c0-.8623.6658-1.5431,1.1017-1.9548l1.3322-1.2681c.483-.464,1.0147-.5647,1.531-.0706l.947.9012,1.0082-.98c.5163-.4938,1.0536-.3555,1.5382.105Zm-1.6684,1.7102c.0464.0441,2.3181,2.1834,2.999,2.843v-1.2152c0-.69-.5781-1.2341-.9248-1.5657l-.9091-.8662c-.1311-.0929-.2511-.0504-.3254.0049l-.8398.7992Zm-2.4839-.7093c-.0634-.0608-.2116-.1089-.3414-.0029l-.9003.859c-.3463.3319-.9627.8375-.9627,1.5271v1.1331l2.9506-2.807-.7462-.7093Zm-.3414-.0029l-.9003.859c-.3463.3319-.9627.8375-.9627,1.5271v1.1331l2.9506-2.807-.7462-.7093c-.0634-.0608-.2116-.1089-.3414-.0029Zm3.6651-.087l-.8398.7992c.0464.0441,2.3181,2.1834,2.999,2.843v-1.2152c0-.69-.5781-1.2341-.9248-1.5657l-.9091-.8662c-.1311-.0929-.2511-.0504-.3254.0049Zm0,0l-.8398.7992c.0464.0441,2.3181,2.1834,2.999,2.843v-1.2152c0-.69-.5781-1.2341-.9248-1.5657l-.9091-.8662c-.1311-.0929-.2511-.0504-.3254.0049Zm-3.6651.087l-.9003.859c-.3463.3319-.9627.8375-.9627,1.5271v1.1331l2.9506-2.807-.7462-.7093c-.0634-.0608-.2116-.1089-.3414-.0029Zm0,0l-.9003.859c-.3463.3319-.9627.8375-.9627,1.5271v1.1331l2.9506-2.807-.7462-.7093c-.0634-.0608-.2116-.1089-.3414-.0029Zm3.6651-.087l-.8398.7992c.0464.0441,2.3181,2.1834,2.999,2.843v-1.2152c0-.69-.5781-1.2341-.9248-1.5657l-.9091-.8662c-.1311-.0929-.2511-.0504-.3254.0049Zm0,0l-.8398.7992c.0464.0441,2.3181,2.1834,2.999,2.843v-1.2152c0-.69-.5781-1.2341-.9248-1.5657l-.9091-.8662c-.1311-.0929-.2511-.0504-.3254.0049Zm-3.6651.087l-.9003.859c-.3463.3319-.9627.8375-.9627,1.5271v1.1331l2.9506-2.807-.7462-.7093c-.0634-.0608-.2116-.1089-.3414-.0029Zm3.6651-.087l-.8398.7992c.0464.0441,2.3181,2.1834,2.999,2.843v-1.2152c0-.69-.5781-1.2341-.9248-1.5657l-.9091-.8662c-.1311-.0929-.2511-.0504-.3254.0049Zm0,0l-.8398.7992c.0464.0441,2.3181,2.1834,2.999,2.843v-1.2152c0-.69-.5781-1.2341-.9248-1.5657l-.9091-.8662c-.1311-.0929-.2511-.0504-.3254.0049Zm0,0l-.8398.7992c.0464.0441,2.3181,2.1834,2.999,2.843v-1.2152c0-.69-.5781-1.2341-.9248-1.5657l-.9091-.8662c-.1311-.0929-.2511-.0504-.3254.0049Z"></path></g></svg>