<?xml version="1.0" encoding="UTF-8"?>
<svg id="Camada_1" data-name="Camada 1" xmlns="http://www.w3.org/2000/svg" xmlns:xlink="http://www.w3.org/1999/xlink" viewBox="0 0 322 444">
  <defs>
    <style>
      .cls-1 {
        stroke: url(#linear-gradient-2);
      }

      .cls-1, .cls-2, .cls-3, .cls-4, .cls-5, .cls-6, .cls-7, .cls-8, .cls-9, .cls-10, .cls-11, .cls-12, .cls-13, .cls-14, .cls-15, .cls-16, .cls-17, .cls-18, .cls-19, .cls-20, .cls-21, .cls-22, .cls-23, .cls-24, .cls-25, .cls-26, .cls-27, .cls-28, .cls-29, .cls-30, .cls-31, .cls-32, .cls-33, .cls-34, .cls-35, .cls-36, .cls-37, .cls-38, .cls-39, .cls-40, .cls-41, .cls-42, .cls-43, .cls-44, .cls-45, .cls-46, .cls-47, .cls-48, .cls-49, .cls-50, .cls-51, .cls-52, .cls-53, .cls-54, .cls-55, .cls-56, .cls-57, .cls-58, .cls-59, .cls-60, .cls-61, .cls-62 {
        fill: none;
        stroke-miterlimit: 10;
      }

      .cls-2 {
        stroke: url(#linear-gradient-3);
      }

      .cls-3 {
        stroke: url(#linear-gradient-28);
      }

      .cls-4 {
        stroke: url(#linear-gradient-9);
      }

      .cls-5 {
        stroke: url(#linear-gradient-37);
      }

      .cls-6 {
        stroke: url(#linear-gradient-53);
      }

      .cls-7 {
        stroke: url(#linear-gradient-58);
      }

      .cls-8 {
        stroke: url(#linear-gradient-22);
      }

      .cls-9 {
        stroke: url(#linear-gradient-19);
      }

      .cls-10 {
        stroke: url(#linear-gradient-26);
      }

      .cls-11 {
        stroke: url(#linear-gradient-4);
      }

      .cls-12 {
        stroke: url(#linear-gradient-61);
      }

      .cls-13 {
        stroke: url(#linear-gradient-6);
      }

      .cls-14 {
        stroke: url(#linear-gradient-18);
      }

      .cls-15 {
        stroke: url(#linear-gradient-50);
      }

      .cls-16 {
        stroke: url(#linear-gradient-13);
      }

      .cls-17 {
        stroke: url(#linear-gradient-29);
      }

      .cls-18 {
        stroke: url(#linear-gradient-16);
      }

      .cls-19 {
        stroke: url(#linear-gradient-17);
      }

      .cls-20 {
        stroke: url(#linear-gradient-48);
      }

      .cls-21 {
        stroke: url(#linear-gradient-55);
      }

      .cls-22 {
        stroke: url(#linear-gradient-30);
      }

      .cls-23 {
        stroke: url(#linear-gradient-52);
      }

      .cls-24 {
        stroke: url(#linear-gradient-7);
      }

      .cls-25 {
        stroke: url(#linear-gradient-39);
      }

      .cls-26 {
        stroke: url(#linear-gradient-21);
      }

      .cls-27 {
        stroke: url(#linear-gradient-12);
      }

      .cls-28 {
        stroke: url(#linear-gradient-5);
      }

      .cls-29 {
        stroke: url(#linear-gradient-38);
      }

      .cls-30 {
        stroke: url(#linear-gradient-59);
      }

      .cls-31 {
        stroke: url(#linear-gradient-60);
      }

      .cls-32 {
        stroke: url(#linear-gradient-51);
      }

      .cls-33 {
        stroke: url(#linear-gradient-54);
      }

      .cls-34 {
        stroke: url(#linear-gradient-32);
      }

      .cls-35 {
        stroke: url(#linear-gradient-36);
      }

      .cls-36 {
        stroke: url(#linear-gradient-20);
      }

      .cls-37 {
        stroke: url(#linear-gradient-24);
      }

      .cls-38 {
        stroke: url(#linear-gradient-57);
      }

      .cls-39 {
        stroke: url(#linear-gradient-33);
      }

      .cls-40 {
        stroke: url(#linear-gradient-31);
      }

      .cls-41 {
        stroke: url(#linear-gradient);
      }

      .cls-42 {
        stroke: url(#linear-gradient-25);
      }

      .cls-43 {
        stroke: url(#linear-gradient-35);
      }

      .cls-44 {
        stroke: url(#linear-gradient-62);
      }

      .cls-45 {
        stroke: url(#linear-gradient-46);
      }

      .cls-46 {
        stroke: url(#linear-gradient-49);
      }

      .cls-47 {
        stroke: url(#linear-gradient-27);
      }

      .cls-48 {
        stroke: url(#linear-gradient-23);
      }

      .cls-49 {
        stroke: url(#linear-gradient-14);
      }

      .cls-50 {
        stroke: url(#linear-gradient-41);
      }

      .cls-51 {
        stroke: url(#linear-gradient-44);
      }

      .cls-52 {
        stroke: url(#linear-gradient-42);
      }

      .cls-53 {
        stroke: url(#linear-gradient-34);
      }

      .cls-54 {
        stroke: url(#linear-gradient-11);
      }

      .cls-55 {
        stroke: url(#linear-gradient-8);
      }

      .cls-56 {
        stroke: url(#linear-gradient-47);
      }

      .cls-57 {
        stroke: url(#linear-gradient-40);
      }

      .cls-58 {
        stroke: url(#linear-gradient-10);
      }

      .cls-59 {
        stroke: url(#linear-gradient-15);
      }

      .cls-60 {
        stroke: url(#linear-gradient-43);
      }

      .cls-61 {
        stroke: url(#linear-gradient-45);
      }

      .cls-62 {
        stroke: url(#linear-gradient-56);
      }
    </style>
    <linearGradient id="linear-gradient" x1="714.0845" y1="7598.0847" x2="538.3624" y2="7090.3569" gradientTransform="translate(3964.2112 6603.9392) rotate(155.5798)" gradientUnits="userSpaceOnUse">
      <stop offset=".1592" stop-color="#ff2069" stop-opacity=".3"/>
      <stop offset=".9218" stop-color="#ff2069"/>
    </linearGradient>
    <linearGradient id="linear-gradient-2" x1="715.1963" y1="7605.4383" x2="538.2733" y2="7094.2413" xlink:href="#linear-gradient"/>
    <linearGradient id="linear-gradient-3" x1="716.3201" y1="7612.8162" x2="538.1876" y2="7098.1244" xlink:href="#linear-gradient"/>
    <linearGradient id="linear-gradient-4" x1="717.4475" y1="7620.1928" x2="538.1055" y2="7102.0063" xlink:href="#linear-gradient"/>
    <linearGradient id="linear-gradient-5" x1="718.5771" y1="7627.5686" x2="538.0257" y2="7105.8875" xlink:href="#linear-gradient"/>
    <linearGradient id="linear-gradient-6" x1="719.7081" y1="7634.9443" x2="537.9472" y2="7109.7681" xlink:href="#linear-gradient"/>
    <linearGradient id="linear-gradient-7" x1="720.8403" y1="7642.3192" x2="537.8698" y2="7113.6482" xlink:href="#linear-gradient"/>
    <linearGradient id="linear-gradient-8" x1="721.9732" y1="7649.6939" x2="537.7931" y2="7117.528" xlink:href="#linear-gradient"/>
    <linearGradient id="linear-gradient-9" x1="723.1067" y1="7657.0686" x2="537.7169" y2="7121.4076" xlink:href="#linear-gradient"/>
    <linearGradient id="linear-gradient-10" x1="724.2407" y1="7664.4433" x2="537.6413" y2="7125.2872" xlink:href="#linear-gradient"/>
    <linearGradient id="linear-gradient-11" x1="725.375" y1="7671.8174" x2="537.5659" y2="7129.1663" xlink:href="#linear-gradient"/>
    <linearGradient id="linear-gradient-12" x1="726.5095" y1="7679.1915" x2="537.491" y2="7133.0453" xlink:href="#linear-gradient"/>
    <linearGradient id="linear-gradient-13" x1="727.6445" y1="7686.5657" x2="537.4162" y2="7136.9243" xlink:href="#linear-gradient"/>
    <linearGradient id="linear-gradient-14" x1="728.7795" y1="7693.9398" x2="537.3416" y2="7140.8031" xlink:href="#linear-gradient"/>
    <linearGradient id="linear-gradient-15" x1="729.915" y1="7701.3136" x2="537.2674" y2="7144.6817" xlink:href="#linear-gradient"/>
    <linearGradient id="linear-gradient-16" x1="731.0505" y1="7708.6877" x2="537.1931" y2="7148.5603" xlink:href="#linear-gradient"/>
    <linearGradient id="linear-gradient-17" x1="732.1861" y1="7716.0618" x2="537.1188" y2="7152.439" xlink:href="#linear-gradient"/>
    <linearGradient id="linear-gradient-18" x1="733.3216" y1="7723.4353" x2="537.0448" y2="7156.3172" xlink:href="#linear-gradient"/>
    <linearGradient id="linear-gradient-19" x1="734.4574" y1="7730.8093" x2="536.9706" y2="7160.1957" xlink:href="#linear-gradient"/>
    <linearGradient id="linear-gradient-20" x1="735.5933" y1="7738.183" x2="536.8967" y2="7164.0739" xlink:href="#linear-gradient"/>
    <linearGradient id="linear-gradient-21" x1="736.7292" y1="7745.5569" x2="536.8229" y2="7167.9521" xlink:href="#linear-gradient"/>
    <linearGradient id="linear-gradient-22" x1="737.865" y1="7752.9305" x2="536.749" y2="7171.8302" xlink:href="#linear-gradient"/>
    <linearGradient id="linear-gradient-23" x1="739.001" y1="7760.3042" x2="536.675" y2="7175.7083" xlink:href="#linear-gradient"/>
    <linearGradient id="linear-gradient-24" x1="740.1371" y1="7767.6782" x2="536.6011" y2="7179.5864" xlink:href="#linear-gradient"/>
    <linearGradient id="linear-gradient-25" x1="741.2732" y1="7775.0518" x2="536.5276" y2="7183.4643" xlink:href="#linear-gradient"/>
    <linearGradient id="linear-gradient-26" x1="742.4091" y1="7782.4253" x2="536.4537" y2="7187.342" xlink:href="#linear-gradient"/>
    <linearGradient id="linear-gradient-27" x1="743.5453" y1="7789.799" x2="536.3798" y2="7191.2198" xlink:href="#linear-gradient"/>
    <linearGradient id="linear-gradient-28" x1="744.6813" y1="7797.1727" x2="536.306" y2="7195.0977" xlink:href="#linear-gradient"/>
    <linearGradient id="linear-gradient-29" x1="745.8176" y1="7804.5466" x2="536.2321" y2="7198.9753" xlink:href="#linear-gradient"/>
    <linearGradient id="linear-gradient-30" x1="746.9539" y1="7811.92" x2="536.1586" y2="7202.8529" xlink:href="#linear-gradient"/>
    <linearGradient id="linear-gradient-31" x1="748.0901" y1="7819.2938" x2="536.0847" y2="7206.7305" xlink:href="#linear-gradient"/>
    <linearGradient id="linear-gradient-32" x1="749.2262" y1="7826.6674" x2="536.0109" y2="7210.6079" xlink:href="#linear-gradient"/>
    <linearGradient id="linear-gradient-33" x1="750.3625" y1="7834.0412" x2="535.9371" y2="7214.4854" xlink:href="#linear-gradient"/>
    <linearGradient id="linear-gradient-34" x1="751.4988" y1="7841.4146" x2="535.8634" y2="7218.3627" xlink:href="#linear-gradient"/>
    <linearGradient id="linear-gradient-35" x1="752.6351" y1="7848.7885" x2="535.7895" y2="7222.24" xlink:href="#linear-gradient"/>
    <linearGradient id="linear-gradient-36" x1="753.7712" y1="7856.162" x2="535.7157" y2="7226.1172" xlink:href="#linear-gradient"/>
    <linearGradient id="linear-gradient-37" x1="754.9074" y1="7863.5356" x2="535.6418" y2="7229.9945" xlink:href="#linear-gradient"/>
    <linearGradient id="linear-gradient-38" x1="756.0437" y1="7870.9093" x2="535.5678" y2="7233.8716" xlink:href="#linear-gradient"/>
    <linearGradient id="linear-gradient-39" x1="757.1799" y1="7878.2829" x2="535.494" y2="7237.7487" xlink:href="#linear-gradient"/>
    <linearGradient id="linear-gradient-40" x1="758.3165" y1="7885.6569" x2="535.4202" y2="7241.6257" xlink:href="#linear-gradient"/>
    <linearGradient id="linear-gradient-41" x1="759.4524" y1="7893.03" x2="534.1627" y2="7242.0826" xlink:href="#linear-gradient"/>
    <linearGradient id="linear-gradient-42" x1="760.5889" y1="7900.4038" x2="530.8778" y2="7236.6821" xlink:href="#linear-gradient"/>
    <linearGradient id="linear-gradient-43" x1="761.725" y1="7907.7774" x2="527.593" y2="7231.2819" xlink:href="#linear-gradient"/>
    <linearGradient id="linear-gradient-44" x1="762.8613" y1="7915.1511" x2="524.3086" y2="7225.8819" xlink:href="#linear-gradient"/>
    <linearGradient id="linear-gradient-45" x1="763.9977" y1="7922.5249" x2="521.0238" y2="7220.4815" xlink:href="#linear-gradient"/>
    <linearGradient id="linear-gradient-46" x1="765.1338" y1="7929.8985" x2="517.739" y2="7215.0814" xlink:href="#linear-gradient"/>
    <linearGradient id="linear-gradient-47" x1="766.2701" y1="7937.2723" x2="514.4542" y2="7209.6813" xlink:href="#linear-gradient"/>
    <linearGradient id="linear-gradient-48" x1="767.4064" y1="7944.6459" x2="511.1695" y2="7204.2812" xlink:href="#linear-gradient"/>
    <linearGradient id="linear-gradient-49" x1="768.5423" y1="7952.0194" x2="507.8847" y2="7198.8814" xlink:href="#linear-gradient"/>
    <linearGradient id="linear-gradient-50" x1="769.6787" y1="7959.3931" x2="504.6002" y2="7193.4814" xlink:href="#linear-gradient"/>
    <linearGradient id="linear-gradient-51" x1="770.815" y1="7966.767" x2="501.3154" y2="7188.0816" xlink:href="#linear-gradient"/>
    <linearGradient id="linear-gradient-52" x1="771.9509" y1="7974.1405" x2="498.0307" y2="7182.6819" xlink:href="#linear-gradient"/>
    <linearGradient id="linear-gradient-53" x1="773.0871" y1="7981.5143" x2="494.7459" y2="7177.2821" xlink:href="#linear-gradient"/>
    <linearGradient id="linear-gradient-54" x1="774.223" y1="7988.8878" x2="491.4615" y2="7171.8827" xlink:href="#linear-gradient"/>
    <linearGradient id="linear-gradient-55" x1="775.3593" y1="7996.2618" x2="488.1766" y2="7166.483" xlink:href="#linear-gradient"/>
    <linearGradient id="linear-gradient-56" x1="776.4951" y1="8003.6354" x2="484.892" y2="7161.0837" xlink:href="#linear-gradient"/>
    <linearGradient id="linear-gradient-57" x1="777.6314" y1="8011.0089" x2="481.6075" y2="7155.6842" xlink:href="#linear-gradient"/>
    <linearGradient id="linear-gradient-58" x1="778.7673" y1="8018.3828" x2="478.3226" y2="7150.285" xlink:href="#linear-gradient"/>
    <linearGradient id="linear-gradient-59" x1="779.903" y1="8025.7565" x2="475.0379" y2="7144.886" xlink:href="#linear-gradient"/>
    <linearGradient id="linear-gradient-60" x1="781.0391" y1="8033.1304" x2="471.7532" y2="7139.4869" xlink:href="#linear-gradient"/>
    <linearGradient id="linear-gradient-61" x1="782.1748" y1="8040.5041" x2="468.4684" y2="7134.0881" xlink:href="#linear-gradient"/>
    <linearGradient id="linear-gradient-62" x1="783.3104" y1="8047.878" x2="465.1835" y2="7128.6894" xlink:href="#linear-gradient"/>
  </defs>
  <path class="cls-41" d="M928.0575-532.6039S350.9869-180.99,380.5345-11.8866c19.4794,111.4818,271.7808,223.6338,229.7509,314.5239-46.3831,100.304-550.152-187.9355-566.1571,60.8664-10.2055,158.6467-66.0492,304.2549-199.157,339.6988-148.384,39.5119-325.509-102.0974-325.509-102.0974"/>
  <path class="cls-1" d="M932.2624-528.0761S359.1451-181.1639,385.4101-12.9943c17.2661,110.551,264.6168,221.8432,222.9297,312.4467-33.4754,72.7466-308.2182-60.0574-461.2788-41.8824-57.2144,6.7928-96.7367,34.9172-100.4763,102.3635-9.0445,157.57-62.1846,302.9379-194.4959,338.3434-148.1878,39.7401-330.555-98.071-335.6576-104.4149"/>
  <path class="cls-2" d="M936.4673-523.5484S367.3068-181.3656,390.2859-14.1021c15.0577,109.6046,257.4527,220.0525,216.1086,310.3696-33.1925,72.4905-306.6359-60.303-458.8183-42.1662-56.8594,6.7744-95.282,35.1028-98.5347,102.2619-7.5811,156.5246-58.3202,301.6209-189.8348,336.988-147.9916,39.9683-335.6009-94.0445-345.806-106.7324"/>
  <path class="cls-11" d="M940.6723-519.0206S375.4732-181.5954,395.1616-15.2098c12.8557,108.6426,250.2887,218.2619,209.2874,308.2924-32.9096,72.2343-305.0536-60.5489-456.3578-42.45-56.5043,6.7559-93.8939,35.2798-96.5931,102.1604-6.2741,155.4592-54.4557,300.3039-185.1737,335.6327-147.7954,40.1965-340.6468-90.0181-355.9545-109.0499"/>
  <path class="cls-28" d="M944.8771-514.4927S383.6459-181.8533,400.0371-16.3175c10.6609,107.6651,243.1245,216.4712,202.4663,306.2152-32.6266,71.9782-303.4713-60.7946-453.8973-42.7338-56.1493,6.7374-92.5072,35.4554-94.6516,102.0589-4.971,154.391-50.5912,298.9869-180.5126,334.2773-147.5992,40.4247-345.6927-85.9916-366.103-111.3674"/>
  <path class="cls-13" d="M949.082-509.9649S391.8265-182.1396,404.9127-17.4252c8.4747,106.6721,235.9605,214.6806,195.6451,304.138-32.3437,71.7221-301.889-61.0403-451.4369-43.0176-55.7943,6.719-91.1217,35.6298-92.71,101.9573-3.6716,153.32-46.7267,297.6699-175.8516,332.9219-147.403,40.6528-350.7386-81.9652-376.2515-113.6849"/>
  <path class="cls-24" d="M953.287-505.4371S400.0171-182.4539,409.7884-18.5329c6.2986,105.6636,228.7964,212.8899,188.8239,302.061-32.0609,71.4658-300.3067-61.2861-448.9764-43.3014-55.4393,6.7006-89.7376,35.8028-90.7685,101.8558-2.3761,152.2463-42.8621,296.3528-171.1905,331.5665-147.2068,40.881-355.7845-77.9387-386.4-116.0024"/>
  <path class="cls-55" d="M957.492-500.9093S408.219-182.7959,414.6641-19.6406c4.1335,104.6401,221.6324,211.0993,182.0028,299.9838-31.778,71.2097-298.7244-61.5318-446.5159-43.5852-55.0844,6.6821-88.3549,35.9746-88.8269,101.7543-1.0847,151.1698-38.9976,295.0358-166.5294,330.2111-147.0107,41.1093-360.8304-73.9122-396.5485-118.3199"/>
  <path class="cls-4" d="M961.6969-496.3815S416.4344-183.1652,419.5397-20.7483c1.9808,103.6019,214.4684,209.3086,175.1816,297.9066-31.495,70.9536-297.1421-61.7775-444.0554-43.8689-54.7294,6.6637-86.9736,36.1451-86.8853,101.6527.2024,150.0907-35.1331,293.7189-161.8683,328.8558-146.8144,41.3375-365.8764-69.8857-406.6969-120.6374"/>
  <path class="cls-58" d="M965.9017-491.8537S424.6647-183.561,424.4152-21.856c-.1582,102.5495,207.3042,207.5179,168.3604,295.8294-31.2121,70.6974-295.5598-62.0232-441.595-44.1528-54.3744,6.6453-85.5939,36.3145-84.9438,101.5511,1.4852,149.009-31.3504,292.1228-157.2073,327.5003-146.7143,41.2405-370.9223-65.8593-416.8454-122.9549"/>
  <path class="cls-54" d="M970.1066-487.3259S432.9122-183.9823,429.2909-22.9637c-2.2824,101.4835,200.1402,205.7273,161.5394,293.7523-30.9292,70.4413-293.9775-62.269-439.1345-44.4366-54.0194,6.6268-84.2159,36.4826-83.0021,101.4497,2.7635,147.9247-27.4937,290.7806-152.5461,326.145-146.5278,41.4376-375.9682-61.8328-426.9939-125.2723"/>
  <path class="cls-27" d="M974.3116-482.7981S441.1786-184.4281,434.1665-24.0714c-4.3905,100.4047,192.9762,203.9366,154.7183,291.6751-30.6463,70.1851-292.3952-62.5148-436.674-44.7204-53.6645,6.6083-82.8395,36.6494-81.0606,101.3481,4.0373,146.8381-23.6367,289.4395-147.8851,324.7896-146.3412,41.6357-381.0141-57.8064-437.1423-127.5899"/>
  <path class="cls-16" d="M978.5165-478.2703S449.4658-184.897,439.0422-25.1791c-6.4815,99.314,185.812,202.146,147.897,289.5979-30.3634,69.9289-290.8129-62.7605-434.2135-45.0041-53.3094,6.5899-81.4648,36.8152-79.119,101.2466,5.3064,145.7491-19.7795,288.0997-143.224,323.4343-146.1543,41.8349-386.06-53.7799-447.2908-129.9074"/>
  <path class="cls-49" d="M982.7215-473.7425S457.7758-185.3877,443.9179-26.2868c-8.5544,98.2122,178.648,200.3553,141.0759,287.5207-30.0805,69.6728-289.2306-63.0062-431.7531-45.288-52.9544,6.5715-80.092,36.98-77.1774,101.145,6.5705,144.6577-15.9219,286.761-138.5629,322.0788-145.9672,42.0352-391.1059-49.7535-457.4393-132.2249"/>
  <path class="cls-59" d="M986.9263-469.2147S466.1097-185.898,448.7934-27.3944c-10.6082,97.1006,171.4839,198.5646,134.2548,285.4436-29.7976,69.4167-287.6483-63.252-429.2926-45.5718-52.5994,6.553-78.7209,37.1435-75.2359,101.0435,7.8298,143.5641-12.0641,285.4236-133.9019,320.7235-145.7798,42.2366-396.1519-45.727-467.5878-134.5423"/>
  <path class="cls-18" d="M991.1312-464.6869S474.47-186.4265,453.6691-28.5021c-12.6421,95.9803,164.3198,196.774,127.4335,283.3664-29.5146,69.1605-286.066-63.4977-426.8322-45.8555-52.2444,6.5346-77.3518,37.3061-73.2944,100.942,9.0839,142.4685-8.206,284.0873-129.2407,319.3681-145.5922,42.4391-401.1977-41.7006-477.7363-136.8599"/>
  <path class="cls-19" d="M995.3362-460.1591S482.8579-186.971,458.5447-29.61c-14.6553,94.8525,157.1558,194.9834,120.6124,281.2892-29.2318,68.9043-284.4836-63.7434-424.3717-46.1394-51.8894,6.5161-75.9847,37.4678-71.3528,100.8404,10.3329,141.3709-4.3476,282.7522-124.5796,318.0126-145.4044,42.6428-406.2437-37.6741-487.8848-139.1774"/>
  <path class="cls-14" d="M999.5411-455.6313S491.275-187.529,463.4204-30.7177c-16.6473,93.7184,149.9917,193.1927,113.7913,279.2122-28.9489,68.6482-282.9014-63.9891-421.9112-46.4231-51.5345,6.4977-74.6197,37.6285-69.4112,100.7388,11.5765,140.2715-.4889,281.4183-119.9186,316.6574-145.2163,42.8476-411.2895-33.6476-498.0332-141.4948"/>
  <path class="cls-9" d="M1003.7461-451.1035S499.7225-188.0981,468.296-31.8254c-18.6177,92.5796,142.8277,191.402,106.9701,277.1349-28.6659,68.392-281.3191-64.2349-419.4507-46.707-51.1795,6.4792-73.2567,37.7884-67.4696,100.6374,12.8147,139.1702,3.3702,280.0855-115.2575,315.302-145.0278,43.0537-416.3355-29.6211-508.1817-143.8123"/>
  <path class="cls-36" d="M1007.9508-446.5757S508.2014-188.6759,473.1715-32.933c-20.5662,91.4374,135.6636,189.6114,100.149,275.0578-28.383,68.1359-279.7368-64.4806-416.9903-46.9907-50.8245,6.4609-71.896,37.9475-65.5281,100.5358,14.0474,138.0674,7.2295,278.754-110.5963,313.9466-144.8391,43.261-421.3814-25.5947-518.3302-146.1299"/>
  <path class="cls-26" d="M1012.1558-442.0479S516.7131-189.2597,478.0472-34.0407c-22.4926,90.2934,128.4995,187.8207,93.3278,272.9805-28.1001,67.8798-278.1544-64.7264-414.5298-47.2746-50.4694,6.4424-70.5375,38.1057-63.5865,100.4342,15.2744,136.9631,11.0892,277.4237-105.9353,312.5911-144.65,43.4694-426.4273-21.5682-528.4787-148.4474"/>
  <path class="cls-8" d="M1016.3608-437.5201S525.2584-189.8467,482.9229-35.1484c-24.3969,89.1488,121.3354,186.0301,86.5067,270.9035-27.8171,67.6236-276.5722-64.9721-412.0694-47.5584-50.1144,6.4239-69.1813,38.2634-61.6449,100.3327,16.4958,135.8574,14.9491,276.0945-101.2742,311.2358-144.4607,43.6792-431.4732-17.5418-538.6272-150.7648"/>
  <path class="cls-48" d="M1020.5657-432.9923S533.8376-190.4341,487.7985-36.2561c-26.2793,88.0053,114.1714,184.2394,79.6855,268.8263-27.5343,67.3674-274.9898-65.2178-409.6089-47.8422-49.7595,6.4055-67.8276,38.4204-59.7033,100.2312,17.7113,134.7506,18.8094,274.7664-96.6131,309.8804-144.271,43.8902-436.5191-13.5153-548.7756-153.0824"/>
  <path class="cls-37" d="M1024.7706-428.4646S542.4512-191.0191,492.6742-37.3639c-28.1399,86.8642,107.0073,182.4487,72.8643,266.7491-27.2514,67.1113-273.4075-65.4636-407.1484-48.126-49.4045,6.387-66.4763,38.5769-57.7618,100.1297,18.9208,133.6428,22.6701,273.4397-91.9521,308.5251-144.0809,44.1026-441.565-9.4888-558.9241-155.3999"/>
  <path class="cls-42" d="M1028.9754-423.9367S551.0994-191.5988,497.5497-38.4715c-29.9793,85.7269,99.8432,180.6581,66.0432,264.6719-26.9685,66.8552-271.8253-65.7093-404.6879-48.4098-49.0495,6.3686-65.1274,38.7329-55.8202,100.0281,20.1244,132.5341,26.531,272.1141-87.291,307.1696-143.8905,44.3162-446.6109-5.4624-569.0726-157.7174"/>
  <path class="cls-10" d="M1033.1804-419.4089S559.7824-192.1705,502.4254-39.5792c-31.7981,84.5949,92.6792,178.8674,59.222,262.5948-26.6855,66.599-270.2429-65.9551-402.2274-48.6936-48.6945,6.3502-63.7812,38.8887-53.8786,99.9266,21.3219,131.4248,30.3923,270.7897-82.6299,305.8142-143.6997,44.5312-451.6568-1.4359-579.2211-160.0348"/>
  <path class="cls-47" d="M1037.3853-414.8811S568.4997-192.7314,507.3011-40.6869c-33.5968,83.4693,85.5151,177.0768,52.4009,260.5176-26.4026,66.3429-268.6607-66.2008-399.7669-48.9774-48.3395,6.3318-62.4377,39.0441-51.937,99.825,22.5133,130.315,34.254,269.4666-77.9688,304.4589-143.5085,44.7475-456.7027,2.5905-589.3695-162.3523"/>
  <path class="cls-3" d="M1041.5903-410.3533S577.2511-193.2788,512.1768-41.7947c-35.3764,82.3514,78.3511,175.2861,45.5798,258.4404-26.1198,66.0867-267.0784-66.4465-397.3065-49.2612-47.9846,6.3133-61.0967,39.1993-49.9955,99.7235,23.6986,129.205,38.1159,268.1446-73.3077,303.1035-143.317,44.9653-461.7486,6.6169-599.518-164.6698"/>
  <path class="cls-17" d="M1045.7953-405.8255S586.0358-193.8102,517.0524-42.9024c-37.1377,81.2423,71.1871,173.4955,38.7586,256.3632-25.8368,65.8305-265.496-66.6923-394.846-49.5449-47.6295,6.2949-59.7585,39.3544-48.054,99.6219,24.8775,128.0948,41.9783,266.8239-68.6466,301.7481-143.1249,45.1845-466.7946,10.6434-609.6665-166.9874"/>
  <path class="cls-22" d="M1050-401.2976S594.8527-194.3231,521.9279-44.01c-38.8816,80.1431,64.0229,171.7047,31.9374,254.2861-25.5539,65.5744-263.9138-66.938-392.3856-49.8287-47.2745,6.2764-58.4232,39.5097-46.1123,99.5204,26.0502,126.9849,45.8411,265.5043-63.9856,300.3927-142.9324,45.4052-471.8405,14.6699-619.815-169.3048"/>
  <path class="cls-40" d="M1054.205-396.7699S603.701-194.8154,526.8036-45.1178c-40.6093,79.0547,56.8589,169.9141,25.1163,252.209-25.271,65.3183-262.3314-67.1837-389.9251-50.1126-46.9195,6.2579-57.0907,39.665-44.1708,99.4189,27.2166,125.8752,49.7042,264.1859-59.3245,299.0374-142.7395,45.6272-476.8864,18.6963-629.9635-171.6223"/>
  <path class="cls-34" d="M1058.4099-392.2421S612.5798-195.2847,531.6793-46.2255c-42.3218,77.9779,49.6947,168.1235,18.2952,250.1318-24.9881,65.0622-260.7491-67.4295-387.4647-50.3963-46.5645,6.2395-55.7611,39.8205-42.2292,99.3173,28.3766,124.7662,53.5677,262.8687-54.6633,297.6819-142.5461,45.8509-481.9322,22.7228-640.112-173.9398"/>
  <path class="cls-39" d="M1062.6149-387.7143S621.4873-195.7293,536.555-47.3333c-44.0203,76.9136,42.5307,166.3328,11.4739,248.0546-24.7051,64.806-259.1668-67.6752-385.0042-50.6802-46.2095,6.2211-54.4344,39.9765-40.2876,99.2158,29.5303,123.6578,57.4316,261.5528-50.0023,296.3266-142.3522,46.0761-486.9782,26.7493-650.2605-176.2573"/>
  <path class="cls-53" d="M1066.8196-383.1864S630.4219-196.1474,541.4305-48.4409c-45.706,75.8621,35.3666,164.5421,4.6528,245.9775-24.4223,64.5498-257.5845-67.9209-382.5437-50.9639-45.8545,6.2027-53.1107,40.1329-38.3461,99.1143,30.6777,122.5505,61.2958,260.238-45.3412,294.9712-142.1579,46.3029-492.0241,30.7757-660.4089-178.5748"/>
  <path class="cls-43" d="M1071.0246-378.6586S639.3825-196.5377,546.3062-49.5486c-47.3801,74.8242,28.2025,162.7515-2.1683,243.9003-24.1394,64.2937-256.0022-68.1667-380.0833-51.2478-45.4996,6.1842-51.79,40.2899-36.4045,99.0127,31.8187,121.4446,65.1605,258.9245-40.6801,293.6159-141.963,46.5311-497.07,34.8022-670.5574-180.8923"/>
  <path class="cls-35" d="M1075.2296-374.1308S648.3672-196.8987,551.1818-50.6563c-49.0438,73.8001,21.0385,160.9608-8.9895,241.8231-23.8564,64.0375-254.4199-68.4124-377.6227-51.5315-45.1446,6.1658-50.4724,40.4475-34.4629,98.9111,32.9535,120.3401,69.0256,257.6122-36.0191,292.2604-141.7675,46.7611-502.116,38.8287-680.7059-183.2098"/>
  <path class="cls-5" d="M1079.4345-369.603S657.3739-197.2294,556.0575-51.764c-50.6983,72.7903,13.8744,159.1701-15.8106,239.7459-23.5735,63.7814-252.8376-68.6581-375.1623-51.8154-44.7896,6.1473-49.1578,40.6062-32.5214,98.8097,34.0819,119.2374,72.8911,256.3011-31.358,290.9051-141.5715,46.9927-507.1618,42.8551-690.8544-185.5273"/>
  <path class="cls-29" d="M1083.6394-365.0753S666.401-197.529,560.9332-52.8718c-52.345,71.795,6.7104,157.3795-22.6318,237.6688-23.2906,63.5253-251.2553-68.9039-372.7018-52.0991-44.4346,6.1288-47.8463,40.7658-30.5798,98.7081,35.2041,118.1367,76.757,254.9912-26.6968,289.5497-141.3749,47.226-512.2078,46.8816-701.0028-187.8448"/>
  <path class="cls-25" d="M1087.8444-360.5475S675.4468-197.7968,565.8088-53.9795c-53.9846,70.8142-.4536,155.5888-29.453,235.5916-23.0077,63.269-249.673-69.1496-370.2413-52.383-44.0796,6.1104-46.538,40.9264-28.6382,98.6065,36.3202,117.0383,80.6234,253.6825-22.0358,288.1944-141.1777,47.4609-517.2536,50.908-711.1513-190.1623"/>
  <path class="cls-57" d="M1092.0492-356.0197S684.5089-198.0324,570.6842-55.0871c-55.6186,69.8479-7.6178,153.7982-36.2741,233.5144-22.7248,63.0129-248.0907-69.3954-367.7809-52.6668-43.7245,6.092-45.2327,41.0885-26.6967,98.505,37.4301,115.9423,84.4901,252.375-17.3747,286.8389-140.9799,47.6977-522.2996,54.9345-721.2998-192.4798"/>
  <path class="cls-50" d="M1096.2541-351.4919S693.5861-198.2356,575.56-56.1948c-57.2479,68.8962-14.7818,152.0075-43.0952,231.4373-22.4419,62.7568-246.5084-69.6411-365.3204-52.9506-43.3696,6.0735-43.9306,41.2518-24.755,98.4035,38.5341,114.8491,88.3573,251.0688-12.7136,285.4835-140.7815,47.9362-527.3455,58.9609-731.4483-194.7972"/>
  <path class="cls-52" d="M1100.4591-346.9641S702.676-198.4063,580.4357-57.3025c-58.8737,67.9588-21.9459,150.2169-49.9164,229.3601-22.1589,62.5006-244.9261-69.8868-362.86-53.2344-43.0146,6.0551-42.6315,41.4168-22.8135,98.302,39.6321,113.7589,92.225,249.7637-8.0525,284.1282-140.5823,48.1766-532.3914,62.9874-741.5967-197.1147"/>
  <path class="cls-60" d="M1104.6641-342.4363S711.7769-198.5449,585.3113-58.4102c-60.4969,67.0357-29.11,148.4262-56.7376,227.2829-21.876,62.2445-243.3438-70.1326-360.3994-53.5181-42.6596,6.0366-41.3357,41.5834-20.872,98.2004,40.7243,112.6721,96.0931,248.4599-3.3914,282.7728-140.3824,48.4188-537.4373,67.0138-751.7452-199.4323"/>
  <path class="cls-51" d="M1108.8688-337.9085S720.8869-198.6513,590.1868-59.518c-62.1184,66.1266-36.274,146.6355-63.5587,225.2058-21.5932,61.9883-241.7615-70.3783-357.939-53.802-42.3046,6.0182-40.0429,41.7519-18.9304,98.0989,41.8109,111.5888,99.9616,247.1573,1.2697,281.4174-140.1819,48.663-542.4832,71.0404-761.8937-201.7498"/>
  <path class="cls-61" d="M1113.0738-333.3807S730.0045-198.7263,595.0625-60.6257c-63.739,65.231-43.4381,144.8449-70.3799,223.1286-21.3103,61.7321-240.1792-70.624-355.4786-54.0857-41.9497,5.9997-38.7532,41.9223-16.9888,97.9974,42.892,110.5093,103.8307,245.8559,5.9307,280.062-139.9806,48.909-547.5291,75.0668-772.0422-204.0672"/>
  <path class="cls-45" d="M1117.2787-328.8529S739.128-198.7703,599.9381-61.7334c-65.3598,64.3488-50.6022,143.0542-77.201,221.0515-21.0273,61.476-238.5969-70.8698-353.0181-54.3695-41.5947,5.9813-37.4665,42.0949-15.0472,97.8958,43.9676,109.4339,107.7003,244.5557,10.5918,278.7066-139.7786,49.1571-552.575,79.0933-782.1907-206.3848"/>
  <path class="cls-56" d="M1121.4837-324.3251S748.2558-198.7841,604.8138-62.8411c-66.9812,63.4795-57.7662,141.2636-84.0222,218.9743-20.7444,61.2199-237.0146-71.1155-350.5576-54.6534-41.2396,5.9629-36.1829,42.2699-13.1057,97.7942,45.038,108.3627,111.5703,243.2567,15.2529,277.3512-139.5757,49.4072-557.6209,83.1197-792.3392-208.7023"/>
  <path class="cls-20" d="M1125.6886-319.7973s-368.3023,121.0288-515.9992,255.8485c-68.6041,62.6227-64.9303,139.4729-90.8433,216.8971-20.4615,60.9637-235.4323-71.3612-348.0971-54.9371-40.8846,5.9444-34.9022,42.4472-11.1641,97.6927,46.1034,107.2961,115.4408,241.9589,19.9139,275.9959-139.372,49.6593-562.6669,87.1462-802.4877-211.0198"/>
  <path class="cls-46" d="M1129.8936-315.2695s-363.3755,116.5451-515.3284,250.213c-70.2289,61.778-72.0943,137.6822-97.6645,214.8199-20.1785,60.7075-233.85-71.607-345.6366-55.221-40.5296,5.926-33.6245,42.627-9.2225,97.5912,47.1639,106.2343,119.3118,240.6624,24.5751,274.6405-139.1675,49.9135-567.7127,91.1726-812.6361-213.3372"/>
  <path class="cls-15" d="M1134.0984-310.7416s-358.4485,112.0889-514.6577,244.5774c-71.8564,60.9449-79.2584,135.8916-104.4857,212.7428-19.8957,60.4514-232.2677-71.8527-343.1762-55.5047-40.1747,5.9075-32.3496,42.8096-7.281,97.4896,48.2198,105.1775,123.1834,239.3671,29.2362,273.2851-138.962,50.1699-572.7587,95.1991-822.7846-215.6548"/>
  <path class="cls-32" d="M1138.3033-306.2139s-353.5228,107.6592-513.987,238.942c-73.487,60.1229-86.4226,134.101-111.3068,210.6656-19.6128,60.1952-230.6854-72.0984-340.7157-55.7886-39.8197,5.8891-31.0776,42.9951-5.3394,97.3882,49.2712,104.126,127.0555,238.073,33.8972,271.9297-138.7557,50.4284-577.8046,99.2255-832.9331-217.9722"/>
  <path class="cls-23" d="M1142.5083-301.6861s-348.5994,103.255-513.3163,233.3065c-75.1212,59.3115-93.5866,132.3103-118.1279,208.5884-19.3299,59.9391-229.1031-72.3442-338.2552-56.0723-39.4647,5.8706-29.8082,43.1835-3.3978,97.2866,50.3185,103.0799,130.9281,236.78,38.5583,270.5743-138.5485,50.6892-582.8505,103.252-843.0816-220.2897"/>
  <path class="cls-6" d="M1146.7132-297.1583s-343.6793,98.8751-512.6456,227.671c-76.7594,58.5104-100.7506,130.5196-124.9491,206.5113-19.0469,59.683-227.5208-72.5899-335.7948-56.3561-39.1097,5.8522-28.5415,43.375-1.4563,97.1851,51.3617,102.0396,134.8012,235.4883,43.2195,269.219-138.3404,50.9522-587.8965,107.2784-853.2302-222.6073"/>
  <path class="cls-33" d="M1150.918-292.6304s-338.7634,94.5182-511.9749,222.0355c-78.4018,57.7189-107.9147,128.729-131.7702,204.4342-18.764,59.4268-225.9385-72.8357-333.3343-56.6399-38.7547,5.8338-27.2774,43.5699.4854,97.0834,52.4012,101.0051,138.675,234.1978,47.8805,267.8636-138.1309,51.2176-592.9423,111.3048-863.3785-224.9248"/>
  <path class="cls-21" d="M1155.1229-288.1026s-333.8527,90.1834-511.3042,216.3999c-80.0489,56.9366-115.0788,126.9384-138.5914,202.357-18.4812,59.1706-224.3562-73.0814-330.8738-56.9237-38.3997,5.8153-26.0158,43.768,2.4269,96.982,53.4372,99.9768,142.5492,232.9085,52.5416,266.5082-137.9207,51.4856-597.9882,115.3313-873.527-227.2422"/>
  <path class="cls-62" d="M1159.3279-283.5748s-328.9478,85.8694-510.6334,210.7644c-81.7007,56.163-122.2428,125.1477-145.4126,200.2798-18.1982,58.9145-222.7739-73.3271-328.4133-57.2076-38.0446,5.7969-24.7564,43.9697,4.3684,96.8804,54.47,98.9547,146.4241,231.6205,57.2027,265.1528-137.7093,51.7558-603.0341,119.3579-883.6755-229.5597"/>
  <path class="cls-38" d="M1163.5329-279.047s-324.0494,81.5752-509.9626,205.1289c-83.3576,55.3976-129.4069,123.357-152.2337,198.2027-17.9153,58.6583-221.1916-73.5729-325.9529-57.4913-37.6897,5.7784-23.4994,44.175,6.31,96.7789,55.4999,97.939,150.3632,230.5022,61.8638,263.7975-137.3972,52.2905-608.08,123.3843-893.824-231.8772"/>
  <path class="cls-7" d="M1167.7378-274.5193s-319.1582,77.2996-509.2919,199.4934c-85.0199,54.64-136.5709,121.5664-159.0549,196.1255-17.6324,58.4022-219.6092-73.8186-323.4924-57.7752-37.3347,5.76-22.2446,44.3839,8.2516,96.6773,56.527,96.93,154.2278,229.1851,66.5249,262.4421-137.201,52.5187-613.1259,127.4108-903.9725-234.1947"/>
  <path class="cls-30" d="M1171.9427-269.9915s-314.2744,73.0413-508.6213,193.858c-86.6874,53.8897-143.735,119.7757-165.8761,194.0483-17.3494,58.146-218.0269-74.0643-321.0319-58.0589-36.9797,5.7415-20.9917,44.5967,10.1932,96.5758,57.5518,95.9277,158.0923,227.8682,71.186,261.0866-137.0048,52.7468-618.1718,131.4372-914.121-236.5122"/>
  <path class="cls-31" d="M1176.1475-265.4636s-309.3987,68.7995-507.9506,188.2225c-88.3605,53.1462-150.8991,117.985-172.6971,191.9711-17.0666,57.8898-216.4446-74.3101-318.5715-58.3427-36.6247,5.7231-19.7407,44.8134,12.1348,96.4743,58.5745,94.9323,161.9567,226.5511,75.847,259.7313-136.8086,52.975-623.2178,135.4637-924.2695-238.8297"/>
  <path class="cls-12" d="M1180.3525-260.9358s-304.5315,64.5729-507.2799,182.5869c-90.0391,52.4092-158.0632,116.1944-179.5183,189.894-16.7837,57.6337-214.8624-74.5558-316.111-58.6265-36.2697,5.7047-18.5689,45.0863,14.0763,96.3727,59.4537,94.0394,165.8212,225.2341,80.5081,258.3759-136.6124,53.2033-628.2636,139.4901-934.4179-241.1472"/>
  <path class="cls-44" d="M1184.5574-256.408S560.3522-130.6794,491.6089,108.3602c-16.5008,57.3776-213.28-74.8015-313.6506-58.9103-101.3639,16.0485,232.0815,302.023,101.1871,353.2917-136.4162,53.4314-633.3096,143.5166-944.5664-243.4647"/>
</svg>