<?xml version="1.0" encoding="UTF-8"?>
<svg id="Camada_1" data-name="Camada 1" xmlns="http://www.w3.org/2000/svg" viewBox="0 0 133 45">
  <defs>
    <style>
      .cls-1 {
        fill: #ffca01;
      }

      .cls-1, .cls-2 {
        stroke-width: 0px;
      }

      .cls-2 {
        fill: #009945;
        fill-rule: evenodd;
      }
    </style>
  </defs>
  <path class="cls-1" d="M26.435,18.5125l6.0491-.0081v-3.7778h-6.7147c-.0937-.0061-.188-.0095-.2833-.0095-2.3746,0-4.2996,1.925-4.2996,4.2996,0,1.758,1.0551,3.2696,2.5666,3.936l4.3064,2.1499c1.0141.5062.8503,1.4257-.2965,1.4257h-6.1493v-1.8996s-2.5568,1.8817-2.5568,1.8817l-2.5568,1.8817,2.5568,1.8818,2.5568,1.8818v-1.8997s7.3122.0879,7.3122.0879c2.3746,0,4.2996-1.925,4.2996-4.2996,0-1.211-.2414-2.5196-1.3343-3.2914l-5.5747-2.906c-.4486-.2339-.3873-1.3343.1187-1.3343h0ZM46.8091,14.7817v10.0385c0,1.7717-.599,3.1875-1.8016,4.2475-1.1982,1.0599-2.7972,1.5899-4.7927,1.5899-1.991,0-3.5107-.5145-4.5635-1.5435-1.0528-1.029-1.5813-2.5106-1.5813-4.4409v-9.8915h4.6491v10.3808c0,.9463.7742,1.7205,1.7205,1.7205h0c.9463,0,1.7205-.7742,1.7205-1.7205v-10.3808h4.649ZM56.7612,30.2656c2.3748,0,4.3-1.9251,4.3-4.2999,0-1.6239-.9002-3.0373-2.2288-3.7689,1.0381-.7387,1.7153-1.9517,1.7153-3.3228,0-2.1536-1.6706-3.9168-3.7865-4.065v-.0424h-8.632v15.4991h8.632ZM52.7352,23.8563h2.2308c.8882,0,1.615.7267,1.615,1.615h0c0,.8291-.6782,1.5073-1.5073,1.5073h-2.3385v-3.1223h0ZM52.7352,18.1852h1.8666c.7432,0,1.3513.6081,1.3513,1.3513h0c0,.6937-.5675,1.2612-1.2612,1.2612h-1.9567v-2.6125h0Z"/>
  <path class="cls-2" d="M109.1601,18.4719v3.1861c0,2.2207-1.7578,4.0507-3.9507,4.1676v4.5303h-5.0021v-4.5421c-2.1181-.1947-3.7914-1.9891-3.7914-4.1558v-6.9138h4.572v6.1809c0,.8061.6595,1.4656,1.4656,1.4656h.6691c.8061,0,1.4656-.6595,1.4656-1.4656v-3.2816h.0168c-.0005-.0212-.0008-.0424-.0008-.0637,0-1.566,1.2695-2.8356,2.8355-2.8356h.0045l.0274.0004v-.0004h3.9149v-1.8997s2.5568,1.8818,2.5568,1.8818l2.5568,1.8818-2.5568,1.8817-2.5568,1.8817v-1.8996h-2.2263ZM87.0933,30.2949h-4.671v-9.8451c0-1.8994.5889-3.3771,1.771-4.4293,1.1822-1.0522,2.8433-1.5783,4.9835-1.5783,2.0655,0,3.5904.4758,4.5792,1.4313.9888.9555,1.481,2.4255,1.481,4.4177v10.0036h-4.671v-4.527h-3.4728v4.527h0ZM90.5661,22.4226v-2.5966c0-.955-.7814-1.7364-1.7364-1.7364h0c-.955,0-1.7364.7814-1.7364,1.7364v2.5966h3.4728ZM81.2822,14.8135v11.1487c0,1.3965-.4895,2.53-1.4731,3.408-.9836.8781-2.2527,1.3192-3.8119,1.3192-.0982,0-.1954-.0043-.2908.0023-.8422.0581-2.6557.082-4.0106-1.1481-1.3083,1.3267-3.1228,1.1883-3.7961,1.1615-.2426-.0097-.4967-.0157-.7637-.0157-1.6318,0-2.8828-.441-3.753-1.3192-.8657-.8781-1.3008-2.1431-1.3008-3.791v-10.7658h4.6079v10.572c0,.7535.6165,1.37,1.37,1.37h0c.7535,0,1.37-.6165,1.37-1.37v-10.572h4.3967v10.572c0,.7535.6165,1.37,1.37,1.37h0c.7535,0,1.37-.6165,1.37-1.37v-10.572h4.7154ZM107.3619,28.0365c.1942,0,.3838.0497.5691.1497.1848.0995.3293.2424.4325.4278.1031.1858.155.3796.155.5806,0,.1995-.0508.3916-.1529.5754-.1016.1843-.244.3273-.4278.4288-.1838.1021-.3759.1529-.5759.1529-.2005,0-.3927-.0508-.5765-.1529-.1838-.1015-.3267-.2445-.4288-.4288-.1021-.1838-.1534-.3759-.1534-.5754,0-.201.0519-.3948.1555-.5806.1042-.1854.2487-.3283.4335-.4278.1853-.1.3749-.1497.5697-.1497h0ZM107.3619,28.2281c-.1628,0-.3215.0419-.4754.1251-.1539.0833-.2743.2026-.3613.3576-.0869.155-.1304.3162-.1304.4838,0,.167.043.3267.1283.4796.0853.1529.2047.2722.3581.3576.1534.0854.3136.1283.4806.1283.1665,0,.3267-.0429.4801-.1283.1534-.0853.2728-.2047.3576-.3576.0848-.1529.1272-.3126.1272-.4796,0-.1675-.0435-.3288-.1298-.4838-.0864-.155-.2068-.2743-.3613-.3576-.1545-.0832-.3126-.1251-.4738-.1251h0ZM106.8535,29.8333v-1.244h.4283c.1466,0,.2524.0115.3178.0346.066.023.1178.0628.1571.1204.0387.0571.0581.1178.0581.1822,0,.0906-.0325.1701-.0979.2372-.0649.0675-.1513.1052-.2592.1136.044.0183.0796.0403.1057.066.0503.0487.1115.1309.1843.2466l.1518.2435h-.244l-.1109-.1958c-.0869-.1545-.1576-.2513-.211-.2901-.0366-.0283-.09-.0424-.1607-.0419h-.1183v.5277h-.201ZM107.0545,29.1328h.244c.1168,0,.1963-.0173.2387-.0518.0424-.0345.0639-.0806.0639-.1372,0-.0367-.0105-.0697-.0309-.0984-.0204-.0294-.0487-.0508-.0848-.0649-.0366-.0141-.1037-.0215-.2021-.0215h-.2288v.3738h0Z"/>
</svg>